<?xml version="1.0" encoding="utf-8"?>

<!DOCTYPE svg PUBLIC "-//W3C//DTD SVG 1.1//EN" "http://www.w3.org/Graphics/SVG/1.1/DTD/svg11.dtd">
<!-- Uploaded to: SVG Repo, www.svgrepo.com, Generator: SVG Repo Mixer Tools -->
<svg height="800px" width="800px" version="1.1" id="_x32_" xmlns="http://www.w3.org/2000/svg" xmlns:xlink="http://www.w3.org/1999/xlink" 
	 viewBox="0 0 512 512"  xml:space="preserve">
<style type="text/css">
	.st0{fill:#000000;}
</style>
<g>
	<path class="st0" d="M86.258,447.65l-0.984-0.883c-0.025-0.008-0.042-0.025-0.058-0.042L86.258,447.65z"/>
	<path class="st0" d="M512,256c0-18.183-1.918-35.942-5.583-53.066l0.008,0.067C486.091,106.192,411.208,29.667,315.316,6.942
		l0.3,0.075l-0.242-0.066C296.291,2.367,276.35,0,256,0c-24.925,0-49.101,3.558-72,10.342l0.416-0.125l-0.342,0.1
		c-42.2,12.267-79.775,35.142-109.908,65.458C28.274,122-0.008,185.767,0,256c0,8.342,0.366,16.675,1.191,24.992v-0.033
		c6.4,65.65,37.6,124.092,84.008,165.75l0.075,0.058C130.558,487.3,190.441,512.008,256,512c34.975,0,68.475-7.033,98.95-19.849
		l-0.017,0.008C407.525,470.1,451.099,431.1,478.899,381.9c-0.008,0.008-0.008,0.026-0.016,0.033l0.316-0.558l-0.292,0.508
		C500.017,344.666,512.008,301.634,512,256z M202.9,64.4c2.058-9.534,4.242-18.134,6.167-25.266
		c15.116-3.284,30.799-5.001,46.933-5.001c13.308,0,26.375,1.167,39.025,3.426c-14.409,13.308-28.8,29.141-46.65,43.375
		c-14.559,11.6-31.35,22.1-52.2,29.492C197.183,94.817,199.824,78.658,202.9,64.4z M195.625,130.334
		c36.291-11.334,62.082-31.351,82.516-50.417c11.2-10.451,20.908-20.584,29.975-28.901c3.242-2.991,6.383-5.624,9.475-8.066
		c65.892,18.958,119.2,67.766,144.358,130.834c-13.524-5.392-28.65-9.9-45.059-13.45c-28.225-6.083-60.091-9.375-93.258-9.383
		c-38.967,0.008-79.724,4.558-118.383,14.642l-0.024,0.008c-2.6,0.684-5.125,1.45-7.684,2.183c-0.159-1.283-0.342-2.6-0.475-3.842
		c-1.184-10.766-1.45-21.584-1.45-32.474C195.616,131.092,195.625,130.708,195.625,130.334z M98.391,99.833
		c24.858-25.025,55.526-44.024,89.792-54.967c-1.208,4.834-2.442,10.034-3.634,15.575c-3.625,16.825-6.741,36.317-7.409,55.409
		c-0.116,0.016-0.258,0.058-0.374,0.075l-0.05,0.009c-6.983,1.133-13.808,1.674-20.442,1.674
		c-22.042-0.016-41.95-6.066-58.766-16.841C97.808,100.467,98.092,100.134,98.391,99.833z M34.133,256
		c0.008-53.675,18.95-102.716,50.608-141.066c20.375,13.783,44.933,21.467,71.533,21.45c6.75,0,13.65-0.583,20.625-1.574
		c0.05,10.142,0.334,20.524,1.5,31.166c0.275,2.492,0.6,4.958,0.925,7.408c-31.392,10.616-63.092,26.442-91.076,46.458
		c-20.433,14.642-38.85,31.533-53.633,50.308C34.324,265.484,34.133,260.784,34.133,256z M95.691,409.3
		c-28.958-30.317-49.433-68.742-57.616-111.542c14.475-23.283,35.958-44.676,61.1-62.65c25.35-18.142,54.292-32.808,82.867-42.817
		c3.491,22.424,8.2,44.125,13.933,64.983c-39.15,23.376-62.475,57.742-77.475,90.259c-7.942,17.175-13.683,33.883-18.417,48.317
		C98.516,400.65,97.074,405.075,95.691,409.3z M256,477.867c-55.676-0.009-106.309-20.458-145.325-54.267
		c2.3-6.641,4.625-13.941,7.242-21.908c6.984-21.326,15.925-46.6,30.342-70.325c12.725-20.925,29.566-40.559,53.142-55.617
		c25.892,82.366,68.291,150.175,119.8,192.366C300.591,474.458,278.691,477.867,256,477.867z M449.2,365.083l-0.292,0.517
		l0.275-0.492c-24.042,42.558-61.792,76.367-107.233,95.467c-52.134-38.6-97.184-107.509-123.55-193.342
		c8.126-3.141,16.525-5.858,25.416-7.775c9.458-2.042,18.867-2.974,28.225-2.974c40.9-0.067,81.358,18.1,117.142,39.95
		c17.892,10.9,34.583,22.65,49.633,33.308c7.3,5.158,14.183,10.042,20.692,14.484C456.4,351.367,453.016,358.35,449.2,365.083z
		 M466.491,326.234c-5.299-3.675-10.866-7.592-16.824-11.817C427.033,298.408,400,279.367,370,264.208
		c-29.992-15.133-63.1-26.483-97.958-26.5c-10.616,0-21.374,1.058-32.191,3.4c-9.208,1.983-18.018,4.809-26.625,8.033
		c-5.401-20.092-9.801-41.008-13.05-62.591c3.267-0.959,6.525-1.925,9.833-2.801l-0.025,0.008
		c36.875-9.625,76.15-14.033,113.65-14.033c31.917,0,62.559,3.191,89.3,8.967c22.308,4.8,41.85,11.466,57.116,19.324
		c1.067,3.966,2.126,7.95,2.976,12l0.008,0.058v0.009c3.167,14.783,4.834,30.133,4.834,45.916
		C477.858,280.567,473.866,304.167,466.491,326.234z"/>
</g>
</svg>