<?xml version="1.0" encoding="iso-8859-1"?>
<!-- Uploaded to: SVG Repo, www.svgrepo.com, Generator: SVG Repo Mixer Tools -->
<svg fill="#000000" height="800px" width="800px" version="1.1" id="Layer_1" xmlns="http://www.w3.org/2000/svg" xmlns:xlink="http://www.w3.org/1999/xlink" 
	 viewBox="0 0 512 512" xml:space="preserve">
<g>
	<g>
		<path d="M392.123,167.352h-33.985V149.89c2.436-1.628,4.035-3.77,5.368-6.321c5.702-10.898,8.664-23.174,8.664-35.5
			c0-42.28-34.423-76.676-76.703-76.676c-11.243,0-22.222,2.448-32.223,7.079C247.232,14.827,220.249,0,190.752,0
			c-34.433,0-65.382,20.348-79.486,50.889c-28.219,3.739-49.961,27.958-49.961,57.181c0,14,4.552,27.353,14.295,37.863v322.317
			C75.6,492.653,95.243,512,119.647,512h194.021c24.404,0,44.471-19.347,44.471-43.751v-42.716h33.985
			c32.179,0,58.571-26.035,58.571-58.214V225.432C450.693,193.253,424.303,167.352,392.123,167.352z M321.603,468.249
			c0,4.259-3.677,7.216-7.935,7.216H119.646c-4.259,0-7.512-2.957-7.512-7.216V250.165h209.468V468.249z M321.603,213.63H112.134
			v-59.674h42.064c3.522,4.871,7.766,10.219,12.684,14.579c16.934,15.017,38.8,23.076,61.216,23.076
			c3.348,0,6.71,0.036,10.068-0.335c26.375-2.912,49.523-17.835,64.458-37.321h18.979V213.63z M334.627,117.42h-16.086
			c0.181-1.218,0.364-2.167,0.516-3.114c1.61-9.96-5.159-19.485-15.119-21.095c-9.964-1.611-19.338,5.087-20.948,15.046
			c-3.975,24.589-24.056,43.638-48.835,46.374c-15.598,1.722-31.281-3.287-43.034-13.708c-7.362-6.528-11.752-16.124-12.044-26.314
			c-0.29-10.085-8.698-18.046-18.784-17.74c-10.085,0.29-18.025,8.99-17.735,19.075c0.011,0.396,0.046,0.257,0.065,1.475H99.633
			c-1.245-3.654-1.901-5.995-1.901-9.057c0-11.661,9.487-21.294,21.147-21.294c0.879,0,1.789-0.011,2.781,0.119
			c9.022,1.175,17.532-4.544,19.96-13.311c6.09-21.986,26.291-37.341,49.124-37.341c21.702,0,41.061,13.776,48.172,34.279
			c2.011,5.798,6.799,10.199,12.745,11.716c5.947,1.519,12.256-0.052,16.799-4.181c7.395-6.719,16.977-10.42,26.981-10.42
			c22.134,0,40.141,18.3,40.141,40.435C335.582,111.352,335.262,113.767,334.627,117.42z M414.158,367.32
			c0,12.034-10.002,21.679-22.036,21.679h-33.985V203.887h33.985c12.034,0,22.036,9.511,22.036,21.545V367.32z"/>
	</g>
</g>
</svg>