<?xml version="1.0" encoding="iso-8859-1"?>
<!-- Uploaded to: SVG Repo, www.svgrepo.com, Generator: SVG Repo Mixer Tools -->
<!DOCTYPE svg PUBLIC "-//W3C//DTD SVG 1.1//EN" "http://www.w3.org/Graphics/SVG/1.1/DTD/svg11.dtd">
<svg fill="#000000" version="1.1" id="Capa_1" xmlns="http://www.w3.org/2000/svg" xmlns:xlink="http://www.w3.org/1999/xlink" 
	 width="800px" height="800px" viewBox="0 0 496.531 496.53"
	 xml:space="preserve">
<g>
	<g>
		<path d="M247.437,23.872c-65.733,0-117.209,22.782-117.209,51.863s51.476,51.863,117.209,51.863
			c65.72,0,117.202-22.782,117.202-51.863C364.644,46.654,313.157,23.872,247.437,23.872z M247.437,116.047
			c-62.273,0-105.667-21.247-105.667-40.317c0-19.067,43.395-40.312,105.667-40.312c62.261,0,105.655,21.244,105.655,40.312
			C353.097,94.805,309.698,116.047,247.437,116.047z"/>
		<path d="M179.335,76.414c0,18.892,33.248,28.779,66.093,28.779c32.851,0,66.1-9.887,66.1-28.779
			C311.528,38.634,179.335,38.634,179.335,76.414z M245.428,93.643c-33.3,0-54.542-10.205-54.542-17.229
			c0-7.026,21.242-17.229,54.542-17.229c33.304,0,54.553,10.202,54.553,17.229C299.981,83.438,278.732,93.643,245.428,93.643z"/>
		<path d="M312.097,277.616c-1.615,0.821-2.796,1.241-3.533,1.241c-1.479,0-2.039-1.055-1.666-3.183
			c0.364-2.128,1.125-4.756,2.291-7.901c1.148-3.137,2.428-6.571,3.809-10.318c1.382-3.743,2.399-7.179,3.048-10.324
			c0.644-3.136,0.63-5.775-0.07-7.894c-0.69-2.122-2.516-3.192-5.475-3.192c-2.403,0-4.644,0.807-6.725,2.424
			c-2.072,1.624-4.037,3.718-5.881,6.301l2.632-8.725h-12.61l-11.308,37.801c-0.99,1.773-2.11,3.183-3.44,3.985
			c-1.624,0.971-2.936,1.316-3.948,1.036c-0.742-0.182-1.25-0.756-1.525-1.727s0.135-3.216,1.246-6.721
			c0.555-1.849,1.391-4.602,2.492-8.242c1.101-3.649,2.221-7.332,3.322-11.015c1.298-4.34,2.68-8.968,4.154-13.861
			c-3.043-1.386-6.441-1.893-10.184-1.519c-3.734,0.371-7.477,1.519-11.225,3.465c-3.738,1.939-7.273,4.644-10.602,8.107
			c-3.32,3.458-6.055,7.645-8.176,12.535c-1.008,2.292-1.848,4.425-2.562,6.445c-3.11,4.541-6.35,8.76-9.768,12.405
			c-1.848,1.941-3.813,3.831-5.888,5.68c-2.079,1.853-4.247,3.51-6.513,4.984c-2.261,1.479-4.569,2.665-6.921,3.538
			c-2.354,0.877-4.739,1.315-7.138,1.315c-3.51,0-6.219-1.409-8.107-4.228c-1.892-2.811-3.16-6.558-3.808-11.22
			c-0.656-4.663-0.656-9.96,0-15.868c0.648-5.909,1.801-11.985,3.465-18.225c1.666-6.235,3.759-12.3,6.303-18.223
			c2.532-5.906,5.449-11.196,8.728-15.866c3.283-4.66,6.886-8.401,10.813-11.222c3.92-2.819,8.053-4.228,12.403-4.228
			c3.043,0,5.281,0.539,6.714,1.601c1.435,1.062,2.242,2.331,2.429,3.813c0.18,1.477-0.187,3.045-1.104,4.697
			c-0.929,1.668-2.219,3.123-3.885,4.364c-1.664,1.253-3.624,2.156-5.895,2.705c-2.254,0.555-4.684,0.417-7.269-0.416
			c0.46,1.76,1.199,3.375,2.214,4.852c0.922,1.3,2.168,2.527,3.741,3.68c1.568,1.15,3.694,1.825,6.38,2.002
			c4.518,0.469,8.422-0.091,11.705-1.654c3.283-1.583,5.82-3.654,7.616-6.235c1.802-2.59,2.89-5.435,3.263-8.527
			c0.374-3.087-0.093-5.997-1.382-8.728c-1.297-2.728-3.428-5.017-6.377-6.855c-2.954-1.851-6.844-2.777-11.638-2.777
			c-6.38,0-12.592,1.615-18.638,4.85c-6.056,3.236-11.688,7.514-16.904,12.813c-5.223,5.325-9.906,11.369-14.06,18.158
			c-4.163,6.79-7.584,13.723-10.256,20.782c-2.681,7.066-4.501,13.982-5.477,20.713c-0.971,6.758-0.856,12.778,0.345,18.089
			c1.199,5.312,3.577,9.582,7.133,12.825c3.562,3.221,8.569,4.845,15.035,4.845c3.603,0,7.063-0.527,10.396-1.597
			c3.325-1.055,6.466-2.492,9.423-4.284c2.95-1.801,5.722-3.808,8.312-6.029c2.581-2.222,4.94-4.522,7.068-6.926
			c1.878-2.054,3.589-4.304,5.295-6.567c-0.334,2.301-0.502,4.411-0.306,6.082c0.277,2.343,1.017,4.102,2.217,5.264
			c1.199,1.148,2.681,1.728,4.436,1.728c2.495,0,5.041-0.714,7.621-2.143c2.59-1.433,4.856-3.169,6.793-5.199
			c0.177,2.959,1.017,4.915,2.487,5.886c1.479,0.971,3.057,1.456,4.719,1.456c1.194,0,2.557-0.271,4.078-0.831
			c1.526-0.556,3.095-1.461,4.71-2.697c1.339-1.036,2.585-2.474,3.831-3.99l-2.38,7.938h12.61l8.728-29.095
			c0.653-1.577,1.339-3.188,2.086-4.863c0.732-1.656,1.479-3.154,2.217-4.494c0.737-1.344,1.521-2.45,2.353-3.328
			c0.83-0.877,1.614-1.315,2.361-1.315c1.013,0,1.241,1.073,0.687,3.192c-0.556,2.128-1.415,4.751-2.562,7.887
			c-1.148,3.146-2.371,6.562-3.669,10.259c-1.297,3.696-2.174,7.122-2.632,10.253c-0.467,3.146-0.289,5.773,0.551,7.906
			c0.831,2.114,2.81,3.179,5.955,3.179c1.195,0,2.562-0.271,4.089-0.831c1.521-0.556,3.089-1.461,4.704-2.697
			c1.614-1.251,3.164-2.866,4.644-4.854c1.475-1.987,2.768-4.405,3.888-7.271h-1.941
			C315.075,275.171,313.711,276.785,312.097,277.616z M256.334,270.41c-0.56,1.662-0.971,3.179-1.255,4.569
			c-0.738,0.556-1.662,1.186-2.768,1.871c-1.111,0.7-2.128,1.041-3.055,1.041c-1.2,0-1.911-0.845-2.147-2.562
			c-0.229-1.717-0.091-3.883,0.422-6.52c0.506-2.628,1.332-5.446,2.49-8.447c1.155-3.001,2.427-5.82,3.806-8.462
			c1.391-2.627,2.87-4.802,4.447-6.506c1.563-1.712,3.085-2.569,4.56-2.569c0.561,0,1.111,0.1,1.671,0.282L256.334,270.41z"/>
		<path d="M401.206,288.416V77.947C401.206,34.237,334,0,248.205,0C162.412,0,95.204,34.237,95.204,77.947V418.59
			c0,43.707,67.208,77.94,153.001,77.94c85.79,0,153.001-34.237,153.001-77.94V289.788c0.019-0.452,0.121-0.9,0.121-1.362h-0.121
			V288.416z M389.66,418.59c0,35.993-64.779,66.395-141.455,66.395c-76.675,0-141.455-30.401-141.455-66.395V311.191
			c17.303,17.502,54.252,30.924,102.018,35.838c-0.654,1.186-1.181,2.399-1.725,3.622c-3.125,6.249-4.966,13.124-4.966,20.433
			c0,27.321,24.341,49.551,54.271,49.551c22.924,0,42.479-13.092,50.408-31.484c3.021-6.161,4.771-12.928,4.771-20.105
			c0-8.41-2.441-16.689-7.011-24.055c39.74-5.965,69.703-17.763,85.133-32.716V418.59H389.66z M214.527,369.035
			c0-4.947,1.253-9.764,3.421-14.328c6.903-12.75,21.445-21.641,38.401-21.641c23.559,0,42.722,17.049,42.722,38.013
			c0,4.761-1.101,9.278-2.907,13.479c-6.688,13.213-21.576,22.486-38.909,22.486C233.697,407.034,214.527,389.99,214.527,369.035z
			 M389.66,289.415c-1.312,19.802-41.435,38.802-96.497,45.457h-0.019c-9.689-8.214-22.561-13.353-36.791-13.353
			c-15.053,0-28.684,5.638-38.529,14.72c-63.026-5.11-110.353-25.524-110.353-47.813h-0.716V108.143
			c22.733,28.292,76.799,47.747,141.455,47.747c64.657,0,118.721-19.45,141.45-47.747V289.415L389.66,289.415z M248.205,144.339
			c-76.675,0-141.455-30.399-141.455-66.396c0-35.995,64.779-66.396,141.455-66.396c76.676,0,141.455,30.401,141.455,66.396
			C389.66,113.944,324.88,144.339,248.205,144.339z"/>
		<polygon points="116.292,386.388 118.133,433.03 120.756,434.248 118.917,387.592 		"/>
		<polygon points="146.927,400.52 148.751,447.148 151.396,448.366 149.561,401.724 		"/>
		<polygon points="122.553,389.285 124.375,435.914 125.699,436.53 123.864,389.883 		"/>
		<polygon points="150.651,402.246 152.49,448.861 153.808,449.458 151.983,402.844 		"/>
		<polygon points="142.754,398.597 144.586,445.229 145.909,445.827 144.075,399.203 		"/>
		<polygon points="136.26,395.591 138.101,442.243 139.434,442.84 137.592,396.216 		"/>
		<polygon points="127.152,391.399 128.996,438.047 131.614,439.242 129.785,392.618 		"/>
		<polygon points="138.682,396.711 140.533,443.358 143.161,444.539 141.317,397.924 		"/>
		<polygon points="130.673,393.023 132.499,439.662 133.824,440.269 131.987,393.631 		"/>
		<polygon points="154.172,403.861 156.011,450.485 157.327,451.082 155.5,404.468 		"/>
		<polygon points="158.774,405.956 160.611,452.604 163.252,453.812 161.427,407.207 		"/>
		<polygon points="162.298,407.576 164.136,454.229 165.45,454.854 163.621,408.196 		"/>
	</g>
</g>
</svg>