<?xml version="1.0" encoding="utf-8"?>

<!DOCTYPE svg PUBLIC "-//W3C//DTD SVG 1.1//EN" "http://www.w3.org/Graphics/SVG/1.1/DTD/svg11.dtd">
<!-- Uploaded to: SVG Repo, www.svgrepo.com, Generator: SVG Repo Mixer Tools -->
<svg height="800px" width="800px" version="1.1" id="_x32_" xmlns="http://www.w3.org/2000/svg" xmlns:xlink="http://www.w3.org/1999/xlink" 
	 viewBox="0 0 512 512"  xml:space="preserve">
<style type="text/css">
	.st0{fill:#000000;}
</style>
<g>
	<path class="st0" d="M392.293,0H119.708c-24.42,0.008-44.194,19.783-44.202,44.202v423.597
		c0.008,24.419,19.783,44.193,44.202,44.202h272.585c24.418-0.008,44.193-19.783,44.202-44.202V44.202
		C436.486,19.783,416.711,0.008,392.293,0z M392.293,490.311H119.708c-12.426-0.024-22.488-10.087-22.513-22.512V44.202
		c0.025-12.425,10.087-22.488,22.513-22.512h272.585c12.425,0.024,22.488,10.087,22.512,22.512v423.597
		C414.781,480.224,404.718,490.286,392.293,490.311z"/>
	<path class="st0" d="M314.098,190.006c-21.575-17.15-51.722-5.133-58.102,18.846c-6.363-23.979-36.51-35.996-58.086-18.846
		c-20.662,16.442-18.993,49.181,1.239,75.416c18.699,24.248,47.917,47.616,55.78,63.838l1.067,0.798l1.084-0.798
		c7.863-16.223,37.08-39.591,55.78-63.838C333.091,239.187,334.753,206.449,314.098,190.006z"/>
	<path class="st0" d="M182.625,60.327c-9.786-7.765-23.442-2.323-26.334,8.538c-2.876-10.861-16.532-16.304-26.318-8.538
		c-9.354,7.455-8.612,22.276,0.562,34.163c8.474,11.008,21.714,21.584,25.274,28.925l0.481,0.366l0.497-0.366
		c3.561-7.341,16.801-17.917,25.274-28.925C191.237,82.602,191.979,67.782,182.625,60.327z"/>
	<path class="st0" d="M355.7,414.56c-2.876-10.861-16.531-16.304-26.317-8.538c-9.354,7.455-8.612,22.276,0.562,34.164
		c8.473,11.007,21.706,21.583,25.274,28.924l0.48,0.366l0.498-0.366c3.561-7.341,16.801-17.917,25.274-28.924
		c9.174-11.888,9.916-26.709,0.562-34.164C372.249,398.257,358.593,403.699,355.7,414.56z"/>
</g>
</svg>