<?xml version="1.0" encoding="iso-8859-1"?>
<!-- Uploaded to: SVG Repo, www.svgrepo.com, Generator: SVG Repo Mixer Tools -->
<svg fill="#000000" height="800px" width="800px" version="1.1" id="Capa_1" xmlns="http://www.w3.org/2000/svg" xmlns:xlink="http://www.w3.org/1999/xlink" 
	 viewBox="0 0 400.906 400.906" xml:space="preserve">
<path id="XMLID_869_" d="M277.075,180.583c-12.693-18.306-17.104-26.244-18.614-29.39c22.11-51.1,22.492-83.915,22.095-92.72
	l2.192-6.819c3.1-9.638,2.21-19.879-2.507-28.838c-4.716-8.958-12.656-15.489-22.355-18.388L243.069,0l-36.42,56.932
	c-1.358,2.124-3.675,3.392-6.195,3.393c-2.522,0-4.84-1.268-6.199-3.393L157.837,0L143.02,4.429
	c-9.7,2.899-17.639,9.429-22.355,18.387c-4.717,8.958-5.607,19.2-2.507,28.839l2.193,6.819c-0.397,8.806-0.015,41.621,22.095,92.72
	c-1.51,3.145-5.92,11.083-18.614,29.389c-8.761,12.635-13.144,28.043-12.34,43.388l9.272,176.935h159.379l9.272-176.935
	C290.219,208.628,285.836,193.219,277.075,180.583z M269.442,222.924l-8.278,157.981H139.743l-8.279-157.981
	c-0.573-10.942,2.553-21.932,8.803-30.945c6.303-9.09,11.345-16.742,14.984-22.742c6.814-11.234,9.419-17.229,6.837-23.049
	c-24.548-55.336-21.72-87.609-21.694-87.873l0.233-2.122l-3.429-10.663c-1.44-4.478-1.026-9.236,1.165-13.398
	c2.191-4.162,5.879-7.195,10.386-8.542l0.367-0.11l28.291,44.228c5.054,7.9,13.668,12.616,23.047,12.616c0.001,0,0.003,0,0.004,0
	c9.375-0.002,17.987-4.718,23.039-12.615l28.293-44.228l0.368,0.11c4.506,1.347,8.195,4.381,10.386,8.542
	c2.191,4.162,2.604,8.92,1.164,13.398l-3.428,10.663l0.232,2.121c0.034,0.313,3.143,31.886-21.694,87.873l-0.001,0.002
	c-2.58,5.82,0.024,11.813,6.838,23.047c3.641,6.001,8.682,13.652,14.984,22.741C266.889,200.993,270.015,211.983,269.442,222.924z"
	/>
</svg>