<?xml version="1.0" encoding="iso-8859-1"?>
<!-- Uploaded to: SVG Repo, www.svgrepo.com, Generator: SVG Repo Mixer Tools -->
<svg fill="#000000" height="800px" width="800px" version="1.1" id="Layer_1" xmlns="http://www.w3.org/2000/svg" xmlns:xlink="http://www.w3.org/1999/xlink" 
	 viewBox="0 0 512.001 512.001" xml:space="preserve">
<g>
	<g>
		<path d="M375.598,132.674h-10.095l-0.996-9.024c-4.904-44.439-42.317-77.95-87.026-77.95h-2.988V31.673h66.2
			c8.746,0,15.836-7.09,15.836-15.836C356.53,7.09,349.439,0,340.693,0h-82.036c-8.746,0-15.836,7.09-15.836,15.836v29.863h-8.301
			c-44.709,0-82.122,33.512-87.026,77.95l-0.997,9.025h-10.094c-8.746,0-15.836,7.09-15.836,15.836v63.94
			c0,8.282,6.361,15.069,14.462,15.767l18.427,269.031c0.569,8.307,7.473,14.754,15.799,14.754h171.44
			c8.327,0,15.23-6.448,15.799-14.754l18.422-268.961h0.683c8.746,0,15.836-7.09,15.836-15.836v-63.94
			C391.434,139.763,384.343,132.674,375.598,132.674z M178.975,127.123c3.13-28.363,27.009-49.752,55.544-49.752h42.962
			c28.535,0,52.414,21.389,55.544,49.752l0.612,5.549H178.361L178.975,127.123z M168.706,256.421l-1.927-28.136h76.041v28.136
			H168.706z M325.904,480.327H184.042l-0.897-13.109h143.658L325.904,480.327z M328.972,435.546H180.975l-10.099-147.453h71.944
			v108.903c0,8.746,7.09,15.836,15.836,15.836c8.746,0,15.836-7.09,15.836-15.836V288.093h64.578L328.972,435.546z M341.241,256.421
			h-66.748v-28.136h68.675L341.241,256.421z M359.761,196.612H152.239v-32.267h207.522V196.612z"/>
	</g>
</g>
</svg>