<?xml version="1.0" encoding="utf-8"?>

<!DOCTYPE svg PUBLIC "-//W3C//DTD SVG 1.1//EN" "http://www.w3.org/Graphics/SVG/1.1/DTD/svg11.dtd">
<!-- Uploaded to: SVG Repo, www.svgrepo.com, Generator: SVG Repo Mixer Tools -->
<svg height="800px" width="800px" version="1.1" id="_x32_" xmlns="http://www.w3.org/2000/svg" xmlns:xlink="http://www.w3.org/1999/xlink" 
	 viewBox="0 0 512 512"  xml:space="preserve">
<style type="text/css">
	.st0{fill:#000000;}
</style>
<g>
	<path class="st0" d="M437.022,74.978C390.741,28.675,326.633-0.011,255.989,0C185.356-0.011,121.248,28.675,74.978,74.978
		C28.675,121.248-0.022,185.356,0,256c-0.022,70.644,28.675,134.752,74.978,181.021c46.27,46.303,110.378,74.99,181.011,74.978
		c70.644,0.011,134.752-28.675,181.032-74.978C483.314,390.752,512,326.644,512,256C512,185.356,483.314,121.248,437.022,74.978z
		 M412.836,412.848c-40.19,40.168-95.54,64.953-156.847,64.964c-61.307-0.012-116.646-24.796-156.848-64.964
		C58.973,372.658,34.188,317.308,34.177,256c0.011-61.308,24.796-116.658,64.964-156.86c40.202-40.168,95.541-64.953,156.848-64.953
		s116.658,24.785,156.847,64.953c40.168,40.202,64.964,95.551,64.976,156.86C477.8,317.308,453.004,372.658,412.836,412.848z"/>
	<path class="st0" d="M82.148,221.445c-0.545,1.835-1.089,3.657-1.634,5.469c5.691,2.312,11.537,8.492,13.66,17.305
		c2.212,8.647,0.278,19.484-5.857,26.441c-5.991,7.125-14.828,8.981-21.652,6.269c-6.957-2.645-11.736-9.38-13.592-15.983
		c-1.345,0.556-2.679,1.124-3.979,1.668c1.722,8.125,6.701,17.382,15.593,21.885c4.401,2.256,9.602,3.145,14.938,2.144
		c5.313-1,10.67-4.045,14.871-8.87c4.224-4.79,7.047-11.181,8.092-17.683c1.045-6.524,0.434-13.049-1.423-18.65
		C97.408,230.07,89.205,223.502,82.148,221.445z"/>
	<path class="st0" d="M198.616,219.189c-0.656,1.934-1.301,3.879-1.945,5.812c7.146,2.568,14.36,9.247,16.972,18.606
		c2.712,9.18,0.378,20.628-7.169,28.108c-7.402,7.624-18.506,9.847-27.42,7.048c-9.036-2.679-15.538-9.948-18.072-17.195
		c-1.845,0.622-3.667,1.245-5.502,1.868c2.367,8.891,9.303,18.905,20.918,23.562c5.725,2.323,12.393,3.09,19.084,1.912
		c6.668-1.179,13.271-4.568,18.406-9.736c5.18-5.191,8.58-11.892,9.836-18.772c1.256-6.858,0.534-13.793-1.722-19.684
		C217.433,228.67,207.442,221.578,198.616,219.189z"/>
	<path class="st0" d="M350.174,240.918c-4.457-11.87-14.315-19.095-23.163-21.652c-0.6,1.924-1.189,3.846-1.789,5.768
		c7.18,2.702,14.348,9.436,16.95,18.684c2.711,9.114,0.432,20.395-7.048,27.886c-7.358,7.658-18.516,10.07-27.608,7.358
		c-9.224-2.59-15.96-9.892-18.595-17.261c-1.945,0.645-3.9,1.278-5.857,1.923c2.468,9.103,9.692,19.194,21.54,23.684
		c5.845,2.223,12.592,2.912,19.294,1.579c6.691-1.301,13.249-4.79,18.339-9.97c5.091-5.19,8.425-11.86,9.648-18.616
		C353.119,253.522,352.396,246.786,350.174,240.918z"/>
	<path class="st0" d="M459.618,242.029c-3.323-10.925-10.859-17.783-17.905-20.339c-0.445,1.779-0.89,3.556-1.334,5.346
		c5.735,2.646,11.247,8.981,13.236,17.506c2.056,8.436,0.389,18.762-5.412,25.775c-5.69,7.158-14.604,9.635-22.051,7.19
		c-7.558-2.29-13.204-9.18-15.427-16.172c-1.667,0.623-3.346,1.245-5.024,1.856c2.067,8.648,8.18,18.206,17.939,22.24
		c4.8,2.001,10.292,2.489,15.626,1.122c5.346-1.334,10.459-4.69,14.338-9.558c3.89-4.879,6.368-11.004,7.291-17.195
		C461.808,253.61,461.274,247.419,459.618,242.029z"/>
	<path class="st0" d="M122.327,187.702c5.09,1.911,11.181,2.368,17.45,0.956c6.246-1.401,12.604-4.846,17.672-9.892
		c5.068-5.035,8.602-11.393,10.115-17.683c1.522-6.28,1.2-12.403-0.556-17.517c-3.534-10.369-12.159-15.983-19.984-17.649
		c-0.734,1.656-1.457,3.334-2.178,5.001c6.291,1.912,12.426,7.347,14.281,15.472c1.968,8.002-0.788,18.439-8.212,25.675
		c-7.292,7.38-17.717,9.947-25.675,7.757c-8.069-2.101-13.448-8.469-15.227-14.905c-1.689,0.678-3.379,1.345-5.057,2.024
		C106.477,174.898,111.989,183.856,122.327,187.702z"/>
	<path class="st0" d="M244.986,185.078c5.857,2.201,12.682,2.89,19.462,1.656c6.79-1.211,13.426-4.513,18.505-9.425
		c5.091-4.924,8.337-11.215,9.426-17.494c1.1-6.292,0.222-12.482-2.112-17.728c-4.701-10.66-14.46-16.738-23.052-18.862
		c-0.578,1.634-1.178,3.257-1.778,4.924c7.002,2.267,14.104,8.068,16.827,16.394c2.823,8.17,0.756,18.661-6.714,25.674
		c-7.312,7.213-18.616,9.459-27.674,6.836c-9.203-2.489-15.761-9.358-18.206-16.093c-1.912,0.6-3.823,1.211-5.735,1.811
		C226.169,171.13,233.115,180.689,244.986,185.078z"/>
	<path class="st0" d="M370.201,186.79c5.513,2.323,11.782,3.246,17.806,2.267c6.047-0.933,11.759-3.89,15.96-8.48
		c4.224-4.568,6.725-10.492,7.336-16.538c0.623-6.047-0.5-12.104-2.89-17.394c-4.824-10.682-14.138-17.284-22.24-19.828
		c-0.389,1.6-0.767,3.189-1.156,4.812c6.635,2.59,13.527,8.758,16.494,17.039c3.057,8.158,1.856,18.205-4.39,24.763
		c-6.091,6.68-16.16,8.48-24.663,5.602c-8.636-2.768-15.282-9.804-18.105-16.595c-1.779,0.512-3.557,1.035-5.347,1.557
		C351.73,172.363,358.976,182.088,370.201,186.79z"/>
	<path class="st0" d="M165.562,340.614c-4.846-11.248-14.583-18.416-22.907-21.028c-0.501,1.822-1,3.646-1.49,5.446
		c6.769,2.722,13.837,9.292,16.75,17.949c3.023,8.548,1.478,18.639-4.956,24.864c-6.292,6.369-16.194,7.769-24.43,4.935
		c-8.336-2.734-14.704-9.403-17.494-15.994c-1.602,0.445-3.202,0.889-4.802,1.334c2.778,8.058,9.726,17.149,20.54,21.596
		c5.323,2.244,11.381,3.167,17.361,2.444c5.957-0.744,11.715-3.312,16.116-7.602c4.378-4.245,7.135-10.003,7.935-16.06
		C168.985,352.429,167.962,346.149,165.562,340.614z"/>
	<path class="st0" d="M292.122,359.854c1.39-6.158,0.812-12.472-1.301-17.973c-4.268-11.17-14.237-18.116-23.195-20.484
		c-0.645,1.879-1.279,3.757-1.923,5.636c7.246,2.512,14.427,8.958,16.872,17.594c2.579,8.546,0.067,18.85-7.402,25.44
		c-7.324,6.768-18.15,8.736-26.963,6.336c-8.947-2.29-15.572-8.748-18.273-15.317c-1.866,0.534-3.734,1.079-5.602,1.623
		c2.602,8.136,9.759,16.917,21.206,20.807c5.646,1.955,12.148,2.556,18.65,1.489c6.491-1.078,12.916-3.99,18.005-8.525
		C287.299,371.957,290.756,365.989,292.122,359.854z"/>
	<path class="st0" d="M390.875,318.986c-0.645,1.856-1.301,3.69-1.956,5.546c6.379,2.201,12.382,8.158,14.07,16.439
		c1.824,8.158-1,18.316-8.224,25.24c-7.113,6.992-17.295,9.57-25.32,7.603c-8.158-1.856-13.87-7.914-15.883-14.327
		c-1.833,0.622-3.678,1.256-5.523,1.889c1.8,7.959,7.802,16.339,18.183,19.674c5.114,1.645,11.126,1.934,17.216,0.522
		c6.091-1.39,12.193-4.636,17.106-9.392c4.912-4.746,8.357-10.77,9.914-16.828c1.578-6.09,1.423-12.158-0.156-17.405
		C407.168,327.344,398.788,321.009,390.875,318.986z"/>
	<path class="st0" d="M197.927,410.236c-0.455,1.446-0.9,2.868-1.334,4.28c6.77,2.122,13.783,7.19,16.65,13.459
		c2.98,6.224,1.512,13.126-4.457,17.328c-5.857,4.257-15.104,5.39-23.151,3.834c-8.148-1.49-14.772-5.769-17.894-10.47
		c-1.6,0.366-3.19,0.722-4.769,1.078c3.223,5.768,10.66,11.537,21.195,13.904c5.202,1.189,10.959,1.556,16.539,0.922
		c5.558-0.655,10.869-2.344,14.938-5.124c4.068-2.745,6.646-6.535,7.402-10.67c0.756-4.135-0.189-8.613-2.512-12.626
		C215.889,417.949,206.274,412.281,197.927,410.236z"/>
	<path class="st0" d="M316.074,410.303c-0.7,1.467-1.401,2.934-2.09,4.368c6.458,1.766,12.515,6.568,14.038,12.814
		c1.633,6.191-1.534,13.371-8.748,17.694c-7.114,4.446-16.793,5.602-24.407,4.19c-7.703-1.356-13.204-5.301-15.293-9.714
		c-1.723,0.388-3.424,0.777-5.136,1.155c1.957,5.38,7.814,10.66,17.539,12.904c4.823,1.145,10.448,1.467,16.249,0.856
		c5.78-0.644,11.715-2.367,16.65-5.28c4.935-2.867,8.592-6.834,10.381-11.125c1.801-4.279,1.845-8.836,0.378-12.815
		C332.724,417.183,324.132,411.948,316.074,410.303z"/>
	<path class="st0" d="M177.566,97.352c5.09,1.544,11.225,1.901,17.506,0.779c6.268-1.124,12.581-3.824,17.572-7.659
		c4.99-3.812,8.368-8.513,9.802-12.96c1.467-4.446,1.134-8.625-0.511-12.037c-3.312-6.88-11.248-10.325-18.516-11.615
		c-0.711,0.978-1.422,1.978-2.134,3.002c5.89,1.378,11.559,4.868,13.271,10.358c1.789,5.357-0.846,12.771-8.158,18.151
		c-7.192,5.479-17.628,7.491-25.564,5.745c-8.069-1.645-13.27-6.668-14.749-11.536c-1.768,0.488-3.524,0.956-5.28,1.456
		C161.916,87.104,167.229,94.284,177.566,97.352z"/>
	<path class="st0" d="M295.201,96.274c5.479,1.766,11.803,2.467,17.939,1.633c6.135-0.812,11.97-3.212,16.205-6.857
		c4.256-3.634,6.668-8.258,7.113-12.748c0.445-4.513-0.912-8.848-3.49-12.393c-5.202-7.202-14.427-10.803-22.14-12.048
		c-0.356,0.978-0.734,1.968-1.101,2.979c6.346,1.39,13.182,5.024,16.361,10.67c3.244,5.536,2.3,13.027-3.946,18.117
		c-6.08,5.18-16.283,6.724-24.708,4.602c-8.547-2.011-14.882-7.235-17.438-12.004c-1.712,0.401-3.423,0.812-5.135,1.212
		C277.24,85.359,284.042,92.694,295.201,96.274z"/>
</g>
</svg>