<?xml version="1.0" encoding="iso-8859-1"?>
<!-- Uploaded to: SVG Repo, www.svgrepo.com, Generator: SVG Repo Mixer Tools -->
<svg height="800px" width="800px" version="1.1" id="Capa_1" xmlns="http://www.w3.org/2000/svg" xmlns:xlink="http://www.w3.org/1999/xlink" 
	 viewBox="0 0 250.742 250.742" xml:space="preserve">
<g>
	<g>
		<path style="fill:#010002;" d="M247.739,200.407L131.191,83.848l35.74-36.235c2.458-2.491,3.47-6.07,2.687-9.475
			c-0.783-3.41-3.253-6.19-6.549-7.359L94.01,6.249c-3.726-1.322-7.892-0.386-10.688,2.431L2.97,89.657
			c-1.925,1.942-3.002,4.591-2.97,7.332s1.164,5.352,3.138,7.256l48.125,46.259c1.98,1.904,4.536,2.856,7.093,2.856
			c2.643,0,5.287-1.023,7.288-3.051L89.8,125.821l116.26,116.265c1.996,1.996,4.618,2.997,7.234,2.997
			c2.616,0,5.238-1.001,7.234-2.997l27.212-27.206c1.925-1.925,3.002-4.525,3.002-7.239
			C250.742,204.932,249.665,202.327,247.739,200.407z M58.172,128.742L24.83,96.684l68.451-68.973l47.788,16.975L58.172,128.742z
			 M213.294,220.379L104.235,111.31l12.738-12.738l109.053,109.07L213.294,220.379z"/>
	</g>
</g>
</svg>