<?xml version="1.0" encoding="utf-8"?><!-- Uploaded to: SVG Repo, www.svgrepo.com, Generator: SVG Repo Mixer Tools -->
<svg width="800px" height="800px" viewBox="0 -0.5 25 25" fill="none" xmlns="http://www.w3.org/2000/svg">
<path d="M8.07379 12.559C8.4877 12.5431 8.81035 12.1947 8.79445 11.7808C8.77855 11.3669 8.43012 11.0442 8.01621 11.0601L8.07379 12.559ZM5.5 9.46155L4.75026 9.44179C4.74981 9.45889 4.74994 9.47601 4.75066 9.4931L5.5 9.46155ZM7.339 7.20255L7.51044 7.9327C7.52832 7.9285 7.54604 7.92364 7.56357 7.91814L7.339 7.20255ZM7.409 7.11055L6.65965 7.07871L6.65944 7.08496L7.409 7.11055ZM9.955 4.76355L9.92589 5.51299C9.93559 5.51336 9.94529 5.51355 9.955 5.51355V4.76355ZM10.118 4.76355L10.1614 4.01481C10.147 4.01397 10.1325 4.01355 10.118 4.01355V4.76355ZM11.318 4.25655L11.8851 4.74732L11.8869 4.74525L11.318 4.25655ZM14.091 3.00255L14.0822 3.7525C14.0948 3.75265 14.1073 3.75248 14.1199 3.752L14.091 3.00255ZM17.591 6.23155L18.3408 6.21165L18.3403 6.20009L17.591 6.23155ZM18.318 7.47755L17.9318 8.12045C17.9383 8.12441 17.945 8.12826 17.9517 8.132L18.318 7.47755ZM19.5 9.46155L20.2493 9.4928C20.2499 9.47887 20.2501 9.46492 20.2499 9.45098L19.5 9.46155ZM16.9838 11.0611C16.5699 11.0452 16.2214 11.3679 16.2056 11.7818C16.1897 12.1957 16.5123 12.5441 16.9262 12.56L16.9838 11.0611ZM8.046 11.0606C7.63179 11.0606 7.296 11.3963 7.296 11.8106C7.296 12.2248 7.63179 12.5606 8.046 12.5606V11.0606ZM16.955 12.5606C17.3692 12.5606 17.705 12.2248 17.705 11.8106C17.705 11.3963 17.3692 11.0606 16.955 11.0606V12.5606ZM8.72661 11.4955C8.5526 11.1196 8.10682 10.9559 7.73093 11.1299C7.35504 11.3039 7.19138 11.7497 7.36539 12.1256L8.72661 11.4955ZM12.066 20.4946L12.7474 20.1811L12.7466 20.1795L12.066 20.4946ZM12.89 21.0021L12.9165 21.7517H12.9165L12.89 21.0021ZM13.676 20.4376L12.9749 20.1711L12.9742 20.1731L13.676 20.4376ZM17.6561 12.077C17.8032 11.6898 17.6087 11.2566 17.2215 11.1095C16.8343 10.9623 16.4011 11.1569 16.2539 11.5441L17.6561 12.077ZM8.01621 11.0601C7.0788 11.0961 6.2888 10.3673 6.24934 9.43L4.75066 9.4931C4.82489 11.2559 6.31073 12.6267 8.07379 12.559L8.01621 11.0601ZM6.24974 9.48132C6.26932 8.73864 6.78717 8.10252 7.51044 7.9327L7.16756 6.47241C5.78074 6.79803 4.7878 8.01774 4.75026 9.44179L6.24974 9.48132ZM7.56357 7.91814C7.90774 7.81014 8.14626 7.49666 8.15856 7.13614L6.65944 7.08496C6.66885 6.80927 6.85124 6.56956 7.11443 6.48696L7.56357 7.91814ZM8.15832 7.1424C8.19815 6.20513 8.98848 5.47657 9.92589 5.51299L9.98411 4.01412C8.22103 3.94563 6.73459 5.31589 6.65968 7.07871L8.15832 7.1424ZM9.955 5.51355C9.95511 5.51355 9.95521 5.51355 9.95532 5.51355C9.95543 5.51355 9.95553 5.51355 9.95564 5.51355C9.95575 5.51355 9.95585 5.51355 9.95596 5.51355C9.95607 5.51355 9.95617 5.51355 9.95628 5.51355C9.95639 5.51355 9.9565 5.51355 9.9566 5.51355C9.95671 5.51355 9.95682 5.51355 9.95692 5.51355C9.95703 5.51355 9.95714 5.51355 9.95724 5.51355C9.95735 5.51355 9.95746 5.51355 9.95756 5.51355C9.95767 5.51355 9.95778 5.51355 9.95788 5.51355C9.95799 5.51355 9.9581 5.51355 9.9582 5.51355C9.95831 5.51355 9.95842 5.51355 9.95852 5.51355C9.95863 5.51355 9.95874 5.51355 9.95884 5.51355C9.95895 5.51355 9.95906 5.51355 9.95916 5.51355C9.95927 5.51355 9.95938 5.51355 9.95948 5.51355C9.95959 5.51355 9.9597 5.51355 9.9598 5.51355C9.95991 5.51355 9.96002 5.51355 9.96012 5.51355C9.96023 5.51355 9.96034 5.51355 9.96044 5.51355C9.96055 5.51355 9.96066 5.51355 9.96076 5.51355C9.96087 5.51355 9.96098 5.51355 9.96108 5.51355C9.96119 5.51355 9.9613 5.51355 9.96141 5.51355C9.96151 5.51355 9.96162 5.51355 9.96173 5.51355C9.96183 5.51355 9.96194 5.51355 9.96205 5.51355C9.96215 5.51355 9.96226 5.51355 9.96237 5.51355C9.96247 5.51355 9.96258 5.51355 9.96269 5.51355C9.96279 5.51355 9.9629 5.51355 9.96301 5.51355C9.96311 5.51355 9.96322 5.51355 9.96333 5.51355C9.96343 5.51355 9.96354 5.51355 9.96365 5.51355C9.96375 5.51355 9.96386 5.51355 9.96397 5.51355C9.96407 5.51355 9.96418 5.51355 9.96429 5.51355C9.96439 5.51355 9.9645 5.51355 9.96461 5.51355C9.96471 5.51355 9.96482 5.51355 9.96493 5.51355C9.96503 5.51355 9.96514 5.51355 9.96525 5.51355C9.96535 5.51355 9.96546 5.51355 9.96557 5.51355C9.96567 5.51355 9.96578 5.51355 9.96589 5.51355C9.96599 5.51355 9.9661 5.51355 9.96621 5.51355C9.96631 5.51355 9.96642 5.51355 9.96653 5.51355C9.96663 5.51355 9.96674 5.51355 9.96685 5.51355C9.96695 5.51355 9.96706 5.51355 9.96717 5.51355C9.96727 5.51355 9.96738 5.51355 9.96749 5.51355C9.96759 5.51355 9.9677 5.51355 9.96781 5.51355C9.96791 5.51355 9.96802 5.51355 9.96813 5.51355C9.96823 5.51355 9.96834 5.51355 9.96845 5.51355C9.96855 5.51355 9.96866 5.51355 9.96877 5.51355C9.96887 5.51355 9.96898 5.51355 9.96909 5.51355C9.96919 5.51355 9.9693 5.51355 9.96941 5.51355C9.96951 5.51355 9.96962 5.51355 9.96973 5.51355C9.96983 5.51355 9.96994 5.51355 9.97005 5.51355C9.97015 5.51355 9.97026 5.51355 9.97037 5.51355C9.97047 5.51355 9.97058 5.51355 9.97069 5.51355C9.97079 5.51355 9.9709 5.51355 9.97101 5.51355C9.97111 5.51355 9.97122 5.51355 9.97133 5.51355C9.97143 5.51355 9.97154 5.51355 9.97165 5.51355C9.97175 5.51355 9.97186 5.51355 9.97197 5.51355C9.97207 5.51355 9.97218 5.51355 9.97229 5.51355C9.97239 5.51355 9.9725 5.51355 9.97261 5.51355C9.97271 5.51355 9.97282 5.51355 9.97293 5.51355C9.97303 5.51355 9.97314 5.51355 9.97325 5.51355C9.97335 5.51355 9.97346 5.51355 9.97357 5.51355C9.97367 5.51355 9.97378 5.51355 9.97389 5.51355C9.97399 5.51355 9.9741 5.51355 9.97421 5.51355C9.97431 5.51355 9.97442 5.51355 9.97453 5.51355C9.97463 5.51355 9.97474 5.51355 9.97484 5.51355C9.97495 5.51355 9.97506 5.51355 9.97516 5.51355C9.97527 5.51355 9.97538 5.51355 9.97548 5.51355C9.97559 5.51355 9.9757 5.51355 9.9758 5.51355C9.97591 5.51355 9.97602 5.51355 9.97612 5.51355C9.97623 5.51355 9.97634 5.51355 9.97644 5.51355C9.97655 5.51355 9.97666 5.51355 9.97676 5.51355C9.97687 5.51355 9.97698 5.51355 9.97708 5.51355C9.97719 5.51355 9.9773 5.51355 9.9774 5.51355C9.97751 5.51355 9.97762 5.51355 9.97772 5.51355C9.97783 5.51355 9.97794 5.51355 9.97804 5.51355C9.97815 5.51355 9.97826 5.51355 9.97836 5.51355C9.97847 5.51355 9.97858 5.51355 9.97868 5.51355C9.97879 5.51355 9.9789 5.51355 9.979 5.51355C9.97911 5.51355 9.97922 5.51355 9.97932 5.51355C9.97943 5.51355 9.97954 5.51355 9.97964 5.51355C9.97975 5.51355 9.97986 5.51355 9.97996 5.51355C9.98007 5.51355 9.98017 5.51355 9.98028 5.51355C9.98039 5.51355 9.98049 5.51355 9.9806 5.51355C9.98071 5.51355 9.98081 5.51355 9.98092 5.51355C9.98103 5.51355 9.98113 5.51355 9.98124 5.51355C9.98135 5.51355 9.98145 5.51355 9.98156 5.51355C9.98167 5.51355 9.98177 5.51355 9.98188 5.51355C9.98199 5.51355 9.98209 5.51355 9.9822 5.51355C9.98231 5.51355 9.98241 5.51355 9.98252 5.51355C9.98263 5.51355 9.98273 5.51355 9.98284 5.51355C9.98295 5.51355 9.98305 5.51355 9.98316 5.51355C9.98326 5.51355 9.98337 5.51355 9.98348 5.51355C9.98358 5.51355 9.98369 5.51355 9.9838 5.51355C9.9839 5.51355 9.98401 5.51355 9.98412 5.51355C9.98422 5.51355 9.98433 5.51355 9.98444 5.51355C9.98454 5.51355 9.98465 5.51355 9.98476 5.51355C9.98486 5.51355 9.98497 5.51355 9.98508 5.51355C9.98518 5.51355 9.98529 5.51355 9.9854 5.51355C9.9855 5.51355 9.98561 5.51355 9.98572 5.51355C9.98582 5.51355 9.98593 5.51355 9.98603 5.51355C9.98614 5.51355 9.98625 5.51355 9.98635 5.51355C9.98646 5.51355 9.98657 5.51355 9.98667 5.51355C9.98678 5.51355 9.98689 5.51355 9.98699 5.51355C9.9871 5.51355 9.98721 5.51355 9.98731 5.51355C9.98742 5.51355 9.98753 5.51355 9.98763 5.51355C9.98774 5.51355 9.98785 5.51355 9.98795 5.51355C9.98806 5.51355 9.98816 5.51355 9.98827 5.51355C9.98838 5.51355 9.98848 5.51355 9.98859 5.51355C9.9887 5.51355 9.9888 5.51355 9.98891 5.51355C9.98902 5.51355 9.98912 5.51355 9.98923 5.51355C9.98934 5.51355 9.98944 5.51355 9.98955 5.51355C9.98966 5.51355 9.98976 5.51355 9.98987 5.51355C9.98998 5.51355 9.99008 5.51355 9.99019 5.51355C9.99029 5.51355 9.9904 5.51355 9.99051 5.51355C9.99061 5.51355 9.99072 5.51355 9.99083 5.51355C9.99093 5.51355 9.99104 5.51355 9.99115 5.51355C9.99125 5.51355 9.99136 5.51355 9.99147 5.51355C9.99157 5.51355 9.99168 5.51355 9.99179 5.51355C9.99189 5.51355 9.992 5.51355 9.99211 5.51355C9.99221 5.51355 9.99232 5.51355 9.99242 5.51355C9.99253 5.51355 9.99264 5.51355 9.99274 5.51355C9.99285 5.51355 9.99296 5.51355 9.99306 5.51355C9.99317 5.51355 9.99328 5.51355 9.99338 5.51355C9.99349 5.51355 9.9936 5.51355 9.9937 5.51355C9.99381 5.51355 9.99392 5.51355 9.99402 5.51355C9.99413 5.51355 9.99423 5.51355 9.99434 5.51355C9.99445 5.51355 9.99455 5.51355 9.99466 5.51355C9.99477 5.51355 9.99487 5.51355 9.99498 5.51355C9.99509 5.51355 9.99519 5.51355 9.9953 5.51355C9.99541 5.51355 9.99551 5.51355 9.99562 5.51355C9.99573 5.51355 9.99583 5.51355 9.99594 5.51355C9.99604 5.51355 9.99615 5.51355 9.99626 5.51355C9.99636 5.51355 9.99647 5.51355 9.99658 5.51355C9.99668 5.51355 9.99679 5.51355 9.9969 5.51355C9.997 5.51355 9.99711 5.51355 9.99722 5.51355C9.99732 5.51355 9.99743 5.51355 9.99753 5.51355C9.99764 5.51355 9.99775 5.51355 9.99785 5.51355C9.99796 5.51355 9.99807 5.51355 9.99817 5.51355C9.99828 5.51355 9.99839 5.51355 9.99849 5.51355C9.9986 5.51355 9.9987 5.51355 9.99881 5.51355C9.99892 5.51355 9.99902 5.51355 9.99913 5.51355C9.99924 5.51355 9.99934 5.51355 9.99945 5.51355C9.99956 5.51355 9.99966 5.51355 9.99977 5.51355C9.99988 5.51355 9.99998 5.51355 10.0001 5.51355C10.0002 5.51355 10.0003 5.51355 10.0004 5.51355C10.0005 5.51355 10.0006 5.51355 10.0007 5.51355C10.0008 5.51355 10.0009 5.51355 10.001 5.51355C10.0012 5.51355 10.0013 5.51355 10.0014 5.51355C10.0015 5.51355 10.0016 5.51355 10.0017 5.51355C10.0018 5.51355 10.0019 5.51355 10.002 5.51355C10.0021 5.51355 10.0022 5.51355 10.0023 5.51355C10.0024 5.51355 10.0025 5.51355 10.0026 5.51355C10.0027 5.51355 10.0029 5.51355 10.003 5.51355C10.0031 5.51355 10.0032 5.51355 10.0033 5.51355C10.0034 5.51355 10.0035 5.51355 10.0036 5.51355C10.0037 5.51355 10.0038 5.51355 10.0039 5.51355C10.004 5.51355 10.0041 5.51355 10.0042 5.51355C10.0043 5.51355 10.0045 5.51355 10.0046 5.51355C10.0047 5.51355 10.0048 5.51355 10.0049 5.51355C10.005 5.51355 10.0051 5.51355 10.0052 5.51355C10.0053 5.51355 10.0054 5.51355 10.0055 5.51355C10.0056 5.51355 10.0057 5.51355 10.0058 5.51355C10.0059 5.51355 10.006 5.51355 10.0062 5.51355C10.0063 5.51355 10.0064 5.51355 10.0065 5.51355C10.0066 5.51355 10.0067 5.51355 10.0068 5.51355C10.0069 5.51355 10.007 5.51355 10.0071 5.51355C10.0072 5.51355 10.0073 5.51355 10.0074 5.51355C10.0075 5.51355 10.0076 5.51355 10.0077 5.51355C10.0079 5.51355 10.008 5.51355 10.0081 5.51355C10.0082 5.51355 10.0083 5.51355 10.0084 5.51355C10.0085 5.51355 10.0086 5.51355 10.0087 5.51355C10.0088 5.51355 10.0089 5.51355 10.009 5.51355C10.0091 5.51355 10.0092 5.51355 10.0093 5.51355C10.0094 5.51355 10.0096 5.51355 10.0097 5.51355C10.0098 5.51355 10.0099 5.51355 10.01 5.51355C10.0101 5.51355 10.0102 5.51355 10.0103 5.51355C10.0104 5.51355 10.0105 5.51355 10.0106 5.51355C10.0107 5.51355 10.0108 5.51355 10.0109 5.51355C10.011 5.51355 10.0112 5.51355 10.0113 5.51355C10.0114 5.51355 10.0115 5.51355 10.0116 5.51355C10.0117 5.51355 10.0118 5.51355 10.0119 5.51355C10.012 5.51355 10.0121 5.51355 10.0122 5.51355C10.0123 5.51355 10.0124 5.51355 10.0125 5.51355C10.0126 5.51355 10.0127 5.51355 10.0129 5.51355C10.013 5.51355 10.0131 5.51355 10.0132 5.51355C10.0133 5.51355 10.0134 5.51355 10.0135 5.51355C10.0136 5.51355 10.0137 5.51355 10.0138 5.51355C10.0139 5.51355 10.014 5.51355 10.0141 5.51355C10.0142 5.51355 10.0143 5.51355 10.0144 5.51355C10.0146 5.51355 10.0147 5.51355 10.0148 5.51355C10.0149 5.51355 10.015 5.51355 10.0151 5.51355C10.0152 5.51355 10.0153 5.51355 10.0154 5.51355C10.0155 5.51355 10.0156 5.51355 10.0157 5.51355C10.0158 5.51355 10.0159 5.51355 10.016 5.51355C10.0161 5.51355 10.0163 5.51355 10.0164 5.51355C10.0165 5.51355 10.0166 5.51355 10.0167 5.51355C10.0168 5.51355 10.0169 5.51355 10.017 5.51355C10.0171 5.51355 10.0172 5.51355 10.0173 5.51355C10.0174 5.51355 10.0175 5.51355 10.0176 5.51355C10.0177 5.51355 10.0178 5.51355 10.018 5.51355C10.0181 5.51355 10.0182 5.51355 10.0183 5.51355C10.0184 5.51355 10.0185 5.51355 10.0186 5.51355C10.0187 5.51355 10.0188 5.51355 10.0189 5.51355C10.019 5.51355 10.0191 5.51355 10.0192 5.51355C10.0193 5.51355 10.0194 5.51355 10.0195 5.51355C10.0197 5.51355 10.0198 5.51355 10.0199 5.51355C10.02 5.51355 10.0201 5.51355 10.0202 5.51355C10.0203 5.51355 10.0204 5.51355 10.0205 5.51355C10.0206 5.51355 10.0207 5.51355 10.0208 5.51355C10.0209 5.51355 10.021 5.51355 10.0211 5.51355C10.0212 5.51355 10.0214 5.51355 10.0215 5.51355C10.0216 5.51355 10.0217 5.51355 10.0218 5.51355C10.0219 5.51355 10.022 5.51355 10.0221 5.51355C10.0222 5.51355 10.0223 5.51355 10.0224 5.51355C10.0225 5.51355 10.0226 5.51355 10.0227 5.51355C10.0228 5.51355 10.0229 5.51355 10.0231 5.51355C10.0232 5.51355 10.0233 5.51355 10.0234 5.51355C10.0235 5.51355 10.0236 5.51355 10.0237 5.51355C10.0238 5.51355 10.0239 5.51355 10.024 5.51355C10.0241 5.51355 10.0242 5.51355 10.0243 5.51355C10.0244 5.51355 10.0245 5.51355 10.0246 5.51355C10.0248 5.51355 10.0249 5.51355 10.025 5.51355C10.0251 5.51355 10.0252 5.51355 10.0253 5.51355C10.0254 5.51355 10.0255 5.51355 10.0256 5.51355C10.0257 5.51355 10.0258 5.51355 10.0259 5.51355C10.026 5.51355 10.0261 5.51355 10.0262 5.51355C10.0263 5.51355 10.0265 5.51355 10.0266 5.51355C10.0267 5.51355 10.0268 5.51355 10.0269 5.51355C10.027 5.51355 10.0271 5.51355 10.0272 5.51355C10.0273 5.51355 10.0274 5.51355 10.0275 5.51355C10.0276 5.51355 10.0277 5.51355 10.0278 5.51355C10.0279 5.51355 10.028 5.51355 10.0282 5.51355C10.0283 5.51355 10.0284 5.51355 10.0285 5.51355C10.0286 5.51355 10.0287 5.51355 10.0288 5.51355C10.0289 5.51355 10.029 5.51355 10.0291 5.51355C10.0292 5.51355 10.0293 5.51355 10.0294 5.51355C10.0295 5.51355 10.0296 5.51355 10.0297 5.51355C10.0299 5.51355 10.03 5.51355 10.0301 5.51355C10.0302 5.51355 10.0303 5.51355 10.0304 5.51355C10.0305 5.51355 10.0306 5.51355 10.0307 5.51355C10.0308 5.51355 10.0309 5.51355 10.031 5.51355C10.0311 5.51355 10.0312 5.51355 10.0313 5.51355C10.0314 5.51355 10.0315 5.51355 10.0317 5.51355C10.0318 5.51355 10.0319 5.51355 10.032 5.51355C10.0321 5.51355 10.0322 5.51355 10.0323 5.51355C10.0324 5.51355 10.0325 5.51355 10.0326 5.51355C10.0327 5.51355 10.0328 5.51355 10.0329 5.51355C10.033 5.51355 10.0331 5.51355 10.0332 5.51355C10.0334 5.51355 10.0335 5.51355 10.0336 5.51355C10.0337 5.51355 10.0338 5.51355 10.0339 5.51355C10.034 5.51355 10.0341 5.51355 10.0342 5.51355C10.0343 5.51355 10.0344 5.51355 10.0345 5.51355C10.0346 5.51355 10.0347 5.51355 10.0348 5.51355C10.0349 5.51355 10.0351 5.51355 10.0352 5.51355C10.0353 5.51355 10.0354 5.51355 10.0355 5.51355C10.0356 5.51355 10.0357 5.51355 10.0358 5.51355C10.0359 5.51355 10.036 5.51355 10.0361 5.51355C10.0362 5.51355 10.0363 5.51355 10.0364 5.51355C10.0365 5.51355 10.0366 5.51355 10.0368 5.51355C10.0369 5.51355 10.037 5.51355 10.0371 5.51355C10.0372 5.51355 10.0373 5.51355 10.0374 5.51355C10.0375 5.51355 10.0376 5.51355 10.0377 5.51355C10.0378 5.51355 10.0379 5.51355 10.038 5.51355C10.0381 5.51355 10.0382 5.51355 10.0383 5.51355C10.0384 5.51355 10.0386 5.51355 10.0387 5.51355C10.0388 5.51355 10.0389 5.51355 10.039 5.51355C10.0391 5.51355 10.0392 5.51355 10.0393 5.51355C10.0394 5.51355 10.0395 5.51355 10.0396 5.51355C10.0397 5.51355 10.0398 5.51355 10.0399 5.51355C10.04 5.51355 10.0401 5.51355 10.0403 5.51355C10.0404 5.51355 10.0405 5.51355 10.0406 5.51355C10.0407 5.51355 10.0408 5.51355 10.0409 5.51355C10.041 5.51355 10.0411 5.51355 10.0412 5.51355C10.0413 5.51355 10.0414 5.51355 10.0415 5.51355C10.0416 5.51355 10.0417 5.51355 10.0418 5.51355C10.0419 5.51355 10.0421 5.51355 10.0422 5.51355C10.0423 5.51355 10.0424 5.51355 10.0425 5.51355C10.0426 5.51355 10.0427 5.51355 10.0428 5.51355C10.0429 5.51355 10.043 5.51355 10.0431 5.51355C10.0432 5.51355 10.0433 5.51355 10.0434 5.51355C10.0435 5.51355 10.0436 5.51355 10.0438 5.51355C10.0439 5.51355 10.044 5.51355 10.0441 5.51355C10.0442 5.51355 10.0443 5.51355 10.0444 5.51355C10.0445 5.51355 10.0446 5.51355 10.0447 5.51355C10.0448 5.51355 10.0449 5.51355 10.045 5.51355C10.0451 5.51355 10.0452 5.51355 10.0453 5.51355C10.0454 5.51355 10.0456 5.51355 10.0457 5.51355C10.0458 5.51355 10.0459 5.51355 10.046 5.51355C10.0461 5.51355 10.0462 5.51355 10.0463 5.51355C10.0464 5.51355 10.0465 5.51355 10.0466 5.51355C10.0467 5.51355 10.0468 5.51355 10.0469 5.51355C10.047 5.51355 10.0471 5.51355 10.0473 5.51355C10.0474 5.51355 10.0475 5.51355 10.0476 5.51355C10.0477 5.51355 10.0478 5.51355 10.0479 5.51355C10.048 5.51355 10.0481 5.51355 10.0482 5.51355C10.0483 5.51355 10.0484 5.51355 10.0485 5.51355C10.0486 5.51355 10.0487 5.51355 10.0488 5.51355C10.0489 5.51355 10.0491 5.51355 10.0492 5.51355C10.0493 5.51355 10.0494 5.51355 10.0495 5.51355C10.0496 5.51355 10.0497 5.51355 10.0498 5.51355C10.0499 5.51355 10.05 5.51355 10.0501 5.51355C10.0502 5.51355 10.0503 5.51355 10.0504 5.51355C10.0505 5.51355 10.0506 5.51355 10.0508 5.51355C10.0509 5.51355 10.051 5.51355 10.0511 5.51355C10.0512 5.51355 10.0513 5.51355 10.0514 5.51355C10.0515 5.51355 10.0516 5.51355 10.0517 5.51355C10.0518 5.51355 10.0519 5.51355 10.052 5.51355C10.0521 5.51355 10.0522 5.51355 10.0523 5.51355C10.0524 5.51355 10.0526 5.51355 10.0527 5.51355C10.0528 5.51355 10.0529 5.51355 10.053 5.51355C10.0531 5.51355 10.0532 5.51355 10.0533 5.51355C10.0534 5.51355 10.0535 5.51355 10.0536 5.51355C10.0537 5.51355 10.0538 5.51355 10.0539 5.51355C10.054 5.51355 10.0541 5.51355 10.0542 5.51355C10.0544 5.51355 10.0545 5.51355 10.0546 5.51355C10.0547 5.51355 10.0548 5.51355 10.0549 5.51355C10.055 5.51355 10.0551 5.51355 10.0552 5.51355C10.0553 5.51355 10.0554 5.51355 10.0555 5.51355C10.0556 5.51355 10.0557 5.51355 10.0558 5.51355C10.0559 5.51355 10.056 5.51355 10.0562 5.51355C10.0563 5.51355 10.0564 5.51355 10.0565 5.51355C10.0566 5.51355 10.0567 5.51355 10.0568 5.51355C10.0569 5.51355 10.057 5.51355 10.0571 5.51355C10.0572 5.51355 10.0573 5.51355 10.0574 5.51355C10.0575 5.51355 10.0576 5.51355 10.0577 5.51355C10.0579 5.51355 10.058 5.51355 10.0581 5.51355C10.0582 5.51355 10.0583 5.51355 10.0584 5.51355C10.0585 5.51355 10.0586 5.51355 10.0587 5.51355C10.0588 5.51355 10.0589 5.51355 10.059 5.51355C10.0591 5.51355 10.0592 5.51355 10.0593 5.51355C10.0594 5.51355 10.0595 5.51355 10.0597 5.51355C10.0598 5.51355 10.0599 5.51355 10.06 5.51355C10.0601 5.51355 10.0602 5.51355 10.0603 5.51355C10.0604 5.51355 10.0605 5.51355 10.0606 5.51355C10.0607 5.51355 10.0608 5.51355 10.0609 5.51355C10.061 5.51355 10.0611 5.51355 10.0612 5.51355C10.0613 5.51355 10.0615 5.51355 10.0616 5.51355C10.0617 5.51355 10.0618 5.51355 10.0619 5.51355C10.062 5.51355 10.0621 5.51355 10.0622 5.51355C10.0623 5.51355 10.0624 5.51355 10.0625 5.51355C10.0626 5.51355 10.0627 5.51355 10.0628 5.51355C10.0629 5.51355 10.063 5.51355 10.0631 5.51355C10.0633 5.51355 10.0634 5.51355 10.0635 5.51355C10.0636 5.51355 10.0637 5.51355 10.0638 5.51355C10.0639 5.51355 10.064 5.51355 10.0641 5.51355C10.0642 5.51355 10.0643 5.51355 10.0644 5.51355C10.0645 5.51355 10.0646 5.51355 10.0647 5.51355C10.0648 5.51355 10.0649 5.51355 10.0651 5.51355C10.0652 5.51355 10.0653 5.51355 10.0654 5.51355C10.0655 5.51355 10.0656 5.51355 10.0657 5.51355C10.0658 5.51355 10.0659 5.51355 10.066 5.51355C10.0661 5.51355 10.0662 5.51355 10.0663 5.51355C10.0664 5.51355 10.0665 5.51355 10.0666 5.51355C10.0667 5.51355 10.0669 5.51355 10.067 5.51355C10.0671 5.51355 10.0672 5.51355 10.0673 5.51355C10.0674 5.51355 10.0675 5.51355 10.0676 5.51355C10.0677 5.51355 10.0678 5.51355 10.0679 5.51355C10.068 5.51355 10.0681 5.51355 10.0682 5.51355C10.0683 5.51355 10.0684 5.51355 10.0685 5.51355C10.0687 5.51355 10.0688 5.51355 10.0689 5.51355C10.069 5.51355 10.0691 5.51355 10.0692 5.51355C10.0693 5.51355 10.0694 5.51355 10.0695 5.51355C10.0696 5.51355 10.0697 5.51355 10.0698 5.51355C10.0699 5.51355 10.07 5.51355 10.0701 5.51355C10.0702 5.51355 10.0703 5.51355 10.0705 5.51355C10.0706 5.51355 10.0707 5.51355 10.0708 5.51355C10.0709 5.51355 10.071 5.51355 10.0711 5.51355C10.0712 5.51355 10.0713 5.51355 10.0714 5.51355C10.0715 5.51355 10.0716 5.51355 10.0717 5.51355C10.0718 5.51355 10.0719 5.51355 10.072 5.51355C10.0721 5.51355 10.0723 5.51355 10.0724 5.51355C10.0725 5.51355 10.0726 5.51355 10.0727 5.51355C10.0728 5.51355 10.0729 5.51355 10.073 5.51355C10.0731 5.51355 10.0732 5.51355 10.0733 5.51355C10.0734 5.51355 10.0735 5.51355 10.0736 5.51355C10.0737 5.51355 10.0738 5.51355 10.0739 5.51355C10.0741 5.51355 10.0742 5.51355 10.0743 5.51355C10.0744 5.51355 10.0745 5.51355 10.0746 5.51355C10.0747 5.51355 10.0748 5.51355 10.0749 5.51355C10.075 5.51355 10.0751 5.51355 10.0752 5.51355C10.0753 5.51355 10.0754 5.51355 10.0755 5.51355C10.0756 5.51355 10.0757 5.51355 10.0759 5.51355C10.076 5.51355 10.0761 5.51355 10.0762 5.51355C10.0763 5.51355 10.0764 5.51355 10.0765 5.51355C10.0766 5.51355 10.0767 5.51355 10.0768 5.51355C10.0769 5.51355 10.077 5.51355 10.0771 5.51355C10.0772 5.51355 10.0773 5.51355 10.0774 5.51355C10.0775 5.51355 10.0776 5.51355 10.0778 5.51355C10.0779 5.51355 10.078 5.51355 10.0781 5.51355C10.0782 5.51355 10.0783 5.51355 10.0784 5.51355C10.0785 5.51355 10.0786 5.51355 10.0787 5.51355C10.0788 5.51355 10.0789 5.51355 10.079 5.51355C10.0791 5.51355 10.0792 5.51355 10.0793 5.51355C10.0794 5.51355 10.0796 5.51355 10.0797 5.51355C10.0798 5.51355 10.0799 5.51355 10.08 5.51355C10.0801 5.51355 10.0802 5.51355 10.0803 5.51355C10.0804 5.51355 10.0805 5.51355 10.0806 5.51355C10.0807 5.51355 10.0808 5.51355 10.0809 5.51355C10.081 5.51355 10.0811 5.51355 10.0812 5.51355C10.0814 5.51355 10.0815 5.51355 10.0816 5.51355C10.0817 5.51355 10.0818 5.51355 10.0819 5.51355C10.082 5.51355 10.0821 5.51355 10.0822 5.51355C10.0823 5.51355 10.0824 5.51355 10.0825 5.51355C10.0826 5.51355 10.0827 5.51355 10.0828 5.51355C10.0829 5.51355 10.083 5.51355 10.0831 5.51355C10.0833 5.51355 10.0834 5.51355 10.0835 5.51355C10.0836 5.51355 10.0837 5.51355 10.0838 5.51355C10.0839 5.51355 10.084 5.51355 10.0841 5.51355C10.0842 5.51355 10.0843 5.51355 10.0844 5.51355C10.0845 5.51355 10.0846 5.51355 10.0847 5.51355C10.0848 5.51355 10.0849 5.51355 10.0851 5.51355C10.0852 5.51355 10.0853 5.51355 10.0854 5.51355C10.0855 5.51355 10.0856 5.51355 10.0857 5.51355C10.0858 5.51355 10.0859 5.51355 10.086 5.51355C10.0861 5.51355 10.0862 5.51355 10.0863 5.51355C10.0864 5.51355 10.0865 5.51355 10.0866 5.51355C10.0867 5.51355 10.0868 5.51355 10.087 5.51355C10.0871 5.51355 10.0872 5.51355 10.0873 5.51355C10.0874 5.51355 10.0875 5.51355 10.0876 5.51355C10.0877 5.51355 10.0878 5.51355 10.0879 5.51355C10.088 5.51355 10.0881 5.51355 10.0882 5.51355C10.0883 5.51355 10.0884 5.51355 10.0885 5.51355C10.0886 5.51355 10.0888 5.51355 10.0889 5.51355C10.089 5.51355 10.0891 5.51355 10.0892 5.51355C10.0893 5.51355 10.0894 5.51355 10.0895 5.51355C10.0896 5.51355 10.0897 5.51355 10.0898 5.51355C10.0899 5.51355 10.09 5.51355 10.0901 5.51355C10.0902 5.51355 10.0903 5.51355 10.0904 5.51355C10.0905 5.51355 10.0907 5.51355 10.0908 5.51355C10.0909 5.51355 10.091 5.51355 10.0911 5.51355C10.0912 5.51355 10.0913 5.51355 10.0914 5.51355C10.0915 5.51355 10.0916 5.51355 10.0917 5.51355C10.0918 5.51355 10.0919 5.51355 10.092 5.51355C10.0921 5.51355 10.0922 5.51355 10.0923 5.51355C10.0925 5.51355 10.0926 5.51355 10.0927 5.51355C10.0928 5.51355 10.0929 5.51355 10.093 5.51355C10.0931 5.51355 10.0932 5.51355 10.0933 5.51355C10.0934 5.51355 10.0935 5.51355 10.0936 5.51355C10.0937 5.51355 10.0938 5.51355 10.0939 5.51355C10.094 5.51355 10.0941 5.51355 10.0942 5.51355C10.0944 5.51355 10.0945 5.51355 10.0946 5.51355C10.0947 5.51355 10.0948 5.51355 10.0949 5.51355C10.095 5.51355 10.0951 5.51355 10.0952 5.51355C10.0953 5.51355 10.0954 5.51355 10.0955 5.51355C10.0956 5.51355 10.0957 5.51355 10.0958 5.51355C10.0959 5.51355 10.096 5.51355 10.0961 5.51355C10.0963 5.51355 10.0964 5.51355 10.0965 5.51355C10.0966 5.51355 10.0967 5.51355 10.0968 5.51355C10.0969 5.51355 10.097 5.51355 10.0971 5.51355C10.0972 5.51355 10.0973 5.51355 10.0974 5.51355C10.0975 5.51355 10.0976 5.51355 10.0977 5.51355C10.0978 5.51355 10.0979 5.51355 10.0981 5.51355C10.0982 5.51355 10.0983 5.51355 10.0984 5.51355C10.0985 5.51355 10.0986 5.51355 10.0987 5.51355C10.0988 5.51355 10.0989 5.51355 10.099 5.51355C10.0991 5.51355 10.0992 5.51355 10.0993 5.51355C10.0994 5.51355 10.0995 5.51355 10.0996 5.51355C10.0997 5.51355 10.0998 5.51355 10.1 5.51355C10.1001 5.51355 10.1002 5.51355 10.1003 5.51355C10.1004 5.51355 10.1005 5.51355 10.1006 5.51355C10.1007 5.51355 10.1008 5.51355 10.1009 5.51355C10.101 5.51355 10.1011 5.51355 10.1012 5.51355C10.1013 5.51355 10.1014 5.51355 10.1015 5.51355C10.1016 5.51355 10.1017 5.51355 10.1019 5.51355C10.102 5.51355 10.1021 5.51355 10.1022 5.51355C10.1023 5.51355 10.1024 5.51355 10.1025 5.51355C10.1026 5.51355 10.1027 5.51355 10.1028 5.51355C10.1029 5.51355 10.103 5.51355 10.1031 5.51355C10.1032 5.51355 10.1033 5.51355 10.1034 5.51355C10.1035 5.51355 10.1036 5.51355 10.1038 5.51355C10.1039 5.51355 10.104 5.51355 10.1041 5.51355C10.1042 5.51355 10.1043 5.51355 10.1044 5.51355C10.1045 5.51355 10.1046 5.51355 10.1047 5.51355C10.1048 5.51355 10.1049 5.51355 10.105 5.51355C10.1051 5.51355 10.1052 5.51355 10.1053 5.51355C10.1054 5.51355 10.1055 5.51355 10.1057 5.51355C10.1058 5.51355 10.1059 5.51355 10.106 5.51355C10.1061 5.51355 10.1062 5.51355 10.1063 5.51355C10.1064 5.51355 10.1065 5.51355 10.1066 5.51355C10.1067 5.51355 10.1068 5.51355 10.1069 5.51355C10.107 5.51355 10.1071 5.51355 10.1072 5.51355C10.1073 5.51355 10.1074 5.51355 10.1076 5.51355C10.1077 5.51355 10.1078 5.51355 10.1079 5.51355C10.108 5.51355 10.1081 5.51355 10.1082 5.51355C10.1083 5.51355 10.1084 5.51355 10.1085 5.51355C10.1086 5.51355 10.1087 5.51355 10.1088 5.51355C10.1089 5.51355 10.109 5.51355 10.1091 5.51355C10.1092 5.51355 10.1093 5.51355 10.1095 5.51355C10.1096 5.51355 10.1097 5.51355 10.1098 5.51355C10.1099 5.51355 10.11 5.51355 10.1101 5.51355C10.1102 5.51355 10.1103 5.51355 10.1104 5.51355C10.1105 5.51355 10.1106 5.51355 10.1107 5.51355C10.1108 5.51355 10.1109 5.51355 10.111 5.51355C10.1111 5.51355 10.1112 5.51355 10.1114 5.51355C10.1115 5.51355 10.1116 5.51355 10.1117 5.51355C10.1118 5.51355 10.1119 5.51355 10.112 5.51355C10.1121 5.51355 10.1122 5.51355 10.1123 5.51355C10.1124 5.51355 10.1125 5.51355 10.1126 5.51355C10.1127 5.51355 10.1128 5.51355 10.1129 5.51355C10.113 5.51355 10.1131 5.51355 10.1133 5.51355C10.1134 5.51355 10.1135 5.51355 10.1136 5.51355C10.1137 5.51355 10.1138 5.51355 10.1139 5.51355C10.114 5.51355 10.1141 5.51355 10.1142 5.51355C10.1143 5.51355 10.1144 5.51355 10.1145 5.51355C10.1146 5.51355 10.1147 5.51355 10.1148 5.51355C10.1149 5.51355 10.115 5.51355 10.1152 5.51355C10.1153 5.51355 10.1154 5.51355 10.1155 5.51355C10.1156 5.51355 10.1157 5.51355 10.1158 5.51355C10.1159 5.51355 10.116 5.51355 10.1161 5.51355C10.1162 5.51355 10.1163 5.51355 10.1164 5.51355C10.1165 5.51355 10.1166 5.51355 10.1167 5.51355C10.1168 5.51355 10.1169 5.51355 10.1171 5.51355C10.1172 5.51355 10.1173 5.51355 10.1174 5.51355C10.1175 5.51355 10.1176 5.51355 10.1177 5.51355C10.1178 5.51355 10.1179 5.51355 10.118 5.51355V4.01355C10.1179 4.01355 10.1178 4.01355 10.1177 4.01355C10.1176 4.01355 10.1175 4.01355 10.1174 4.01355C10.1173 4.01355 10.1172 4.01355 10.1171 4.01355C10.1169 4.01355 10.1168 4.01355 10.1167 4.01355C10.1166 4.01355 10.1165 4.01355 10.1164 4.01355C10.1163 4.01355 10.1162 4.01355 10.1161 4.01355C10.116 4.01355 10.1159 4.01355 10.1158 4.01355C10.1157 4.01355 10.1156 4.01355 10.1155 4.01355C10.1154 4.01355 10.1153 4.01355 10.1152 4.01355C10.115 4.01355 10.1149 4.01355 10.1148 4.01355C10.1147 4.01355 10.1146 4.01355 10.1145 4.01355C10.1144 4.01355 10.1143 4.01355 10.1142 4.01355C10.1141 4.01355 10.114 4.01355 10.1139 4.01355C10.1138 4.01355 10.1137 4.01355 10.1136 4.01355C10.1135 4.01355 10.1134 4.01355 10.1133 4.01355C10.1131 4.01355 10.113 4.01355 10.1129 4.01355C10.1128 4.01355 10.1127 4.01355 10.1126 4.01355C10.1125 4.01355 10.1124 4.01355 10.1123 4.01355C10.1122 4.01355 10.1121 4.01355 10.112 4.01355C10.1119 4.01355 10.1118 4.01355 10.1117 4.01355C10.1116 4.01355 10.1115 4.01355 10.1114 4.01355C10.1112 4.01355 10.1111 4.01355 10.111 4.01355C10.1109 4.01355 10.1108 4.01355 10.1107 4.01355C10.1106 4.01355 10.1105 4.01355 10.1104 4.01355C10.1103 4.01355 10.1102 4.01355 10.1101 4.01355C10.11 4.01355 10.1099 4.01355 10.1098 4.01355C10.1097 4.01355 10.1096 4.01355 10.1095 4.01355C10.1093 4.01355 10.1092 4.01355 10.1091 4.01355C10.109 4.01355 10.1089 4.01355 10.1088 4.01355C10.1087 4.01355 10.1086 4.01355 10.1085 4.01355C10.1084 4.01355 10.1083 4.01355 10.1082 4.01355C10.1081 4.01355 10.108 4.01355 10.1079 4.01355C10.1078 4.01355 10.1077 4.01355 10.1076 4.01355C10.1074 4.01355 10.1073 4.01355 10.1072 4.01355C10.1071 4.01355 10.107 4.01355 10.1069 4.01355C10.1068 4.01355 10.1067 4.01355 10.1066 4.01355C10.1065 4.01355 10.1064 4.01355 10.1063 4.01355C10.1062 4.01355 10.1061 4.01355 10.106 4.01355C10.1059 4.01355 10.1058 4.01355 10.1057 4.01355C10.1055 4.01355 10.1054 4.01355 10.1053 4.01355C10.1052 4.01355 10.1051 4.01355 10.105 4.01355C10.1049 4.01355 10.1048 4.01355 10.1047 4.01355C10.1046 4.01355 10.1045 4.01355 10.1044 4.01355C10.1043 4.01355 10.1042 4.01355 10.1041 4.01355C10.104 4.01355 10.1039 4.01355 10.1038 4.01355C10.1036 4.01355 10.1035 4.01355 10.1034 4.01355C10.1033 4.01355 10.1032 4.01355 10.1031 4.01355C10.103 4.01355 10.1029 4.01355 10.1028 4.01355C10.1027 4.01355 10.1026 4.01355 10.1025 4.01355C10.1024 4.01355 10.1023 4.01355 10.1022 4.01355C10.1021 4.01355 10.102 4.01355 10.1019 4.01355C10.1017 4.01355 10.1016 4.01355 10.1015 4.01355C10.1014 4.01355 10.1013 4.01355 10.1012 4.01355C10.1011 4.01355 10.101 4.01355 10.1009 4.01355C10.1008 4.01355 10.1007 4.01355 10.1006 4.01355C10.1005 4.01355 10.1004 4.01355 10.1003 4.01355C10.1002 4.01355 10.1001 4.01355 10.1 4.01355C10.0998 4.01355 10.0997 4.01355 10.0996 4.01355C10.0995 4.01355 10.0994 4.01355 10.0993 4.01355C10.0992 4.01355 10.0991 4.01355 10.099 4.01355C10.0989 4.01355 10.0988 4.01355 10.0987 4.01355C10.0986 4.01355 10.0985 4.01355 10.0984 4.01355C10.0983 4.01355 10.0982 4.01355 10.0981 4.01355C10.0979 4.01355 10.0978 4.01355 10.0977 4.01355C10.0976 4.01355 10.0975 4.01355 10.0974 4.01355C10.0973 4.01355 10.0972 4.01355 10.0971 4.01355C10.097 4.01355 10.0969 4.01355 10.0968 4.01355C10.0967 4.01355 10.0966 4.01355 10.0965 4.01355C10.0964 4.01355 10.0963 4.01355 10.0961 4.01355C10.096 4.01355 10.0959 4.01355 10.0958 4.01355C10.0957 4.01355 10.0956 4.01355 10.0955 4.01355C10.0954 4.01355 10.0953 4.01355 10.0952 4.01355C10.0951 4.01355 10.095 4.01355 10.0949 4.01355C10.0948 4.01355 10.0947 4.01355 10.0946 4.01355C10.0945 4.01355 10.0944 4.01355 10.0942 4.01355C10.0941 4.01355 10.094 4.01355 10.0939 4.01355C10.0938 4.01355 10.0937 4.01355 10.0936 4.01355C10.0935 4.01355 10.0934 4.01355 10.0933 4.01355C10.0932 4.01355 10.0931 4.01355 10.093 4.01355C10.0929 4.01355 10.0928 4.01355 10.0927 4.01355C10.0926 4.01355 10.0925 4.01355 10.0923 4.01355C10.0922 4.01355 10.0921 4.01355 10.092 4.01355C10.0919 4.01355 10.0918 4.01355 10.0917 4.01355C10.0916 4.01355 10.0915 4.01355 10.0914 4.01355C10.0913 4.01355 10.0912 4.01355 10.0911 4.01355C10.091 4.01355 10.0909 4.01355 10.0908 4.01355C10.0907 4.01355 10.0905 4.01355 10.0904 4.01355C10.0903 4.01355 10.0902 4.01355 10.0901 4.01355C10.09 4.01355 10.0899 4.01355 10.0898 4.01355C10.0897 4.01355 10.0896 4.01355 10.0895 4.01355C10.0894 4.01355 10.0893 4.01355 10.0892 4.01355C10.0891 4.01355 10.089 4.01355 10.0889 4.01355C10.0888 4.01355 10.0886 4.01355 10.0885 4.01355C10.0884 4.01355 10.0883 4.01355 10.0882 4.01355C10.0881 4.01355 10.088 4.01355 10.0879 4.01355C10.0878 4.01355 10.0877 4.01355 10.0876 4.01355C10.0875 4.01355 10.0874 4.01355 10.0873 4.01355C10.0872 4.01355 10.0871 4.01355 10.087 4.01355C10.0868 4.01355 10.0867 4.01355 10.0866 4.01355C10.0865 4.01355 10.0864 4.01355 10.0863 4.01355C10.0862 4.01355 10.0861 4.01355 10.086 4.01355C10.0859 4.01355 10.0858 4.01355 10.0857 4.01355C10.0856 4.01355 10.0855 4.01355 10.0854 4.01355C10.0853 4.01355 10.0852 4.01355 10.0851 4.01355C10.0849 4.01355 10.0848 4.01355 10.0847 4.01355C10.0846 4.01355 10.0845 4.01355 10.0844 4.01355C10.0843 4.01355 10.0842 4.01355 10.0841 4.01355C10.084 4.01355 10.0839 4.01355 10.0838 4.01355C10.0837 4.01355 10.0836 4.01355 10.0835 4.01355C10.0834 4.01355 10.0833 4.01355 10.0831 4.01355C10.083 4.01355 10.0829 4.01355 10.0828 4.01355C10.0827 4.01355 10.0826 4.01355 10.0825 4.01355C10.0824 4.01355 10.0823 4.01355 10.0822 4.01355C10.0821 4.01355 10.082 4.01355 10.0819 4.01355C10.0818 4.01355 10.0817 4.01355 10.0816 4.01355C10.0815 4.01355 10.0814 4.01355 10.0812 4.01355C10.0811 4.01355 10.081 4.01355 10.0809 4.01355C10.0808 4.01355 10.0807 4.01355 10.0806 4.01355C10.0805 4.01355 10.0804 4.01355 10.0803 4.01355C10.0802 4.01355 10.0801 4.01355 10.08 4.01355C10.0799 4.01355 10.0798 4.01355 10.0797 4.01355C10.0796 4.01355 10.0794 4.01355 10.0793 4.01355C10.0792 4.01355 10.0791 4.01355 10.079 4.01355C10.0789 4.01355 10.0788 4.01355 10.0787 4.01355C10.0786 4.01355 10.0785 4.01355 10.0784 4.01355C10.0783 4.01355 10.0782 4.01355 10.0781 4.01355C10.078 4.01355 10.0779 4.01355 10.0778 4.01355C10.0776 4.01355 10.0775 4.01355 10.0774 4.01355C10.0773 4.01355 10.0772 4.01355 10.0771 4.01355C10.077 4.01355 10.0769 4.01355 10.0768 4.01355C10.0767 4.01355 10.0766 4.01355 10.0765 4.01355C10.0764 4.01355 10.0763 4.01355 10.0762 4.01355C10.0761 4.01355 10.076 4.01355 10.0759 4.01355C10.0757 4.01355 10.0756 4.01355 10.0755 4.01355C10.0754 4.01355 10.0753 4.01355 10.0752 4.01355C10.0751 4.01355 10.075 4.01355 10.0749 4.01355C10.0748 4.01355 10.0747 4.01355 10.0746 4.01355C10.0745 4.01355 10.0744 4.01355 10.0743 4.01355C10.0742 4.01355 10.0741 4.01355 10.0739 4.01355C10.0738 4.01355 10.0737 4.01355 10.0736 4.01355C10.0735 4.01355 10.0734 4.01355 10.0733 4.01355C10.0732 4.01355 10.0731 4.01355 10.073 4.01355C10.0729 4.01355 10.0728 4.01355 10.0727 4.01355C10.0726 4.01355 10.0725 4.01355 10.0724 4.01355C10.0723 4.01355 10.0721 4.01355 10.072 4.01355C10.0719 4.01355 10.0718 4.01355 10.0717 4.01355C10.0716 4.01355 10.0715 4.01355 10.0714 4.01355C10.0713 4.01355 10.0712 4.01355 10.0711 4.01355C10.071 4.01355 10.0709 4.01355 10.0708 4.01355C10.0707 4.01355 10.0706 4.01355 10.0705 4.01355C10.0703 4.01355 10.0702 4.01355 10.0701 4.01355C10.07 4.01355 10.0699 4.01355 10.0698 4.01355C10.0697 4.01355 10.0696 4.01355 10.0695 4.01355C10.0694 4.01355 10.0693 4.01355 10.0692 4.01355C10.0691 4.01355 10.069 4.01355 10.0689 4.01355C10.0688 4.01355 10.0687 4.01355 10.0685 4.01355C10.0684 4.01355 10.0683 4.01355 10.0682 4.01355C10.0681 4.01355 10.068 4.01355 10.0679 4.01355C10.0678 4.01355 10.0677 4.01355 10.0676 4.01355C10.0675 4.01355 10.0674 4.01355 10.0673 4.01355C10.0672 4.01355 10.0671 4.01355 10.067 4.01355C10.0669 4.01355 10.0667 4.01355 10.0666 4.01355C10.0665 4.01355 10.0664 4.01355 10.0663 4.01355C10.0662 4.01355 10.0661 4.01355 10.066 4.01355C10.0659 4.01355 10.0658 4.01355 10.0657 4.01355C10.0656 4.01355 10.0655 4.01355 10.0654 4.01355C10.0653 4.01355 10.0652 4.01355 10.0651 4.01355C10.0649 4.01355 10.0648 4.01355 10.0647 4.01355C10.0646 4.01355 10.0645 4.01355 10.0644 4.01355C10.0643 4.01355 10.0642 4.01355 10.0641 4.01355C10.064 4.01355 10.0639 4.01355 10.0638 4.01355C10.0637 4.01355 10.0636 4.01355 10.0635 4.01355C10.0634 4.01355 10.0633 4.01355 10.0631 4.01355C10.063 4.01355 10.0629 4.01355 10.0628 4.01355C10.0627 4.01355 10.0626 4.01355 10.0625 4.01355C10.0624 4.01355 10.0623 4.01355 10.0622 4.01355C10.0621 4.01355 10.062 4.01355 10.0619 4.01355C10.0618 4.01355 10.0617 4.01355 10.0616 4.01355C10.0615 4.01355 10.0613 4.01355 10.0612 4.01355C10.0611 4.01355 10.061 4.01355 10.0609 4.01355C10.0608 4.01355 10.0607 4.01355 10.0606 4.01355C10.0605 4.01355 10.0604 4.01355 10.0603 4.01355C10.0602 4.01355 10.0601 4.01355 10.06 4.01355C10.0599 4.01355 10.0598 4.01355 10.0597 4.01355C10.0595 4.01355 10.0594 4.01355 10.0593 4.01355C10.0592 4.01355 10.0591 4.01355 10.059 4.01355C10.0589 4.01355 10.0588 4.01355 10.0587 4.01355C10.0586 4.01355 10.0585 4.01355 10.0584 4.01355C10.0583 4.01355 10.0582 4.01355 10.0581 4.01355C10.058 4.01355 10.0579 4.01355 10.0577 4.01355C10.0576 4.01355 10.0575 4.01355 10.0574 4.01355C10.0573 4.01355 10.0572 4.01355 10.0571 4.01355C10.057 4.01355 10.0569 4.01355 10.0568 4.01355C10.0567 4.01355 10.0566 4.01355 10.0565 4.01355C10.0564 4.01355 10.0563 4.01355 10.0562 4.01355C10.056 4.01355 10.0559 4.01355 10.0558 4.01355C10.0557 4.01355 10.0556 4.01355 10.0555 4.01355C10.0554 4.01355 10.0553 4.01355 10.0552 4.01355C10.0551 4.01355 10.055 4.01355 10.0549 4.01355C10.0548 4.01355 10.0547 4.01355 10.0546 4.01355C10.0545 4.01355 10.0544 4.01355 10.0542 4.01355C10.0541 4.01355 10.054 4.01355 10.0539 4.01355C10.0538 4.01355 10.0537 4.01355 10.0536 4.01355C10.0535 4.01355 10.0534 4.01355 10.0533 4.01355C10.0532 4.01355 10.0531 4.01355 10.053 4.01355C10.0529 4.01355 10.0528 4.01355 10.0527 4.01355C10.0526 4.01355 10.0524 4.01355 10.0523 4.01355C10.0522 4.01355 10.0521 4.01355 10.052 4.01355C10.0519 4.01355 10.0518 4.01355 10.0517 4.01355C10.0516 4.01355 10.0515 4.01355 10.0514 4.01355C10.0513 4.01355 10.0512 4.01355 10.0511 4.01355C10.051 4.01355 10.0509 4.01355 10.0508 4.01355C10.0506 4.01355 10.0505 4.01355 10.0504 4.01355C10.0503 4.01355 10.0502 4.01355 10.0501 4.01355C10.05 4.01355 10.0499 4.01355 10.0498 4.01355C10.0497 4.01355 10.0496 4.01355 10.0495 4.01355C10.0494 4.01355 10.0493 4.01355 10.0492 4.01355C10.0491 4.01355 10.0489 4.01355 10.0488 4.01355C10.0487 4.01355 10.0486 4.01355 10.0485 4.01355C10.0484 4.01355 10.0483 4.01355 10.0482 4.01355C10.0481 4.01355 10.048 4.01355 10.0479 4.01355C10.0478 4.01355 10.0477 4.01355 10.0476 4.01355C10.0475 4.01355 10.0474 4.01355 10.0473 4.01355C10.0471 4.01355 10.047 4.01355 10.0469 4.01355C10.0468 4.01355 10.0467 4.01355 10.0466 4.01355C10.0465 4.01355 10.0464 4.01355 10.0463 4.01355C10.0462 4.01355 10.0461 4.01355 10.046 4.01355C10.0459 4.01355 10.0458 4.01355 10.0457 4.01355C10.0456 4.01355 10.0454 4.01355 10.0453 4.01355C10.0452 4.01355 10.0451 4.01355 10.045 4.01355C10.0449 4.01355 10.0448 4.01355 10.0447 4.01355C10.0446 4.01355 10.0445 4.01355 10.0444 4.01355C10.0443 4.01355 10.0442 4.01355 10.0441 4.01355C10.044 4.01355 10.0439 4.01355 10.0438 4.01355C10.0436 4.01355 10.0435 4.01355 10.0434 4.01355C10.0433 4.01355 10.0432 4.01355 10.0431 4.01355C10.043 4.01355 10.0429 4.01355 10.0428 4.01355C10.0427 4.01355 10.0426 4.01355 10.0425 4.01355C10.0424 4.01355 10.0423 4.01355 10.0422 4.01355C10.0421 4.01355 10.0419 4.01355 10.0418 4.01355C10.0417 4.01355 10.0416 4.01355 10.0415 4.01355C10.0414 4.01355 10.0413 4.01355 10.0412 4.01355C10.0411 4.01355 10.041 4.01355 10.0409 4.01355C10.0408 4.01355 10.0407 4.01355 10.0406 4.01355C10.0405 4.01355 10.0404 4.01355 10.0403 4.01355C10.0401 4.01355 10.04 4.01355 10.0399 4.01355C10.0398 4.01355 10.0397 4.01355 10.0396 4.01355C10.0395 4.01355 10.0394 4.01355 10.0393 4.01355C10.0392 4.01355 10.0391 4.01355 10.039 4.01355C10.0389 4.01355 10.0388 4.01355 10.0387 4.01355C10.0386 4.01355 10.0384 4.01355 10.0383 4.01355C10.0382 4.01355 10.0381 4.01355 10.038 4.01355C10.0379 4.01355 10.0378 4.01355 10.0377 4.01355C10.0376 4.01355 10.0375 4.01355 10.0374 4.01355C10.0373 4.01355 10.0372 4.01355 10.0371 4.01355C10.037 4.01355 10.0369 4.01355 10.0368 4.01355C10.0366 4.01355 10.0365 4.01355 10.0364 4.01355C10.0363 4.01355 10.0362 4.01355 10.0361 4.01355C10.036 4.01355 10.0359 4.01355 10.0358 4.01355C10.0357 4.01355 10.0356 4.01355 10.0355 4.01355C10.0354 4.01355 10.0353 4.01355 10.0352 4.01355C10.0351 4.01355 10.0349 4.01355 10.0348 4.01355C10.0347 4.01355 10.0346 4.01355 10.0345 4.01355C10.0344 4.01355 10.0343 4.01355 10.0342 4.01355C10.0341 4.01355 10.034 4.01355 10.0339 4.01355C10.0338 4.01355 10.0337 4.01355 10.0336 4.01355C10.0335 4.01355 10.0334 4.01355 10.0332 4.01355C10.0331 4.01355 10.033 4.01355 10.0329 4.01355C10.0328 4.01355 10.0327 4.01355 10.0326 4.01355C10.0325 4.01355 10.0324 4.01355 10.0323 4.01355C10.0322 4.01355 10.0321 4.01355 10.032 4.01355C10.0319 4.01355 10.0318 4.01355 10.0317 4.01355C10.0315 4.01355 10.0314 4.01355 10.0313 4.01355C10.0312 4.01355 10.0311 4.01355 10.031 4.01355C10.0309 4.01355 10.0308 4.01355 10.0307 4.01355C10.0306 4.01355 10.0305 4.01355 10.0304 4.01355C10.0303 4.01355 10.0302 4.01355 10.0301 4.01355C10.03 4.01355 10.0299 4.01355 10.0297 4.01355C10.0296 4.01355 10.0295 4.01355 10.0294 4.01355C10.0293 4.01355 10.0292 4.01355 10.0291 4.01355C10.029 4.01355 10.0289 4.01355 10.0288 4.01355C10.0287 4.01355 10.0286 4.01355 10.0285 4.01355C10.0284 4.01355 10.0283 4.01355 10.0282 4.01355C10.028 4.01355 10.0279 4.01355 10.0278 4.01355C10.0277 4.01355 10.0276 4.01355 10.0275 4.01355C10.0274 4.01355 10.0273 4.01355 10.0272 4.01355C10.0271 4.01355 10.027 4.01355 10.0269 4.01355C10.0268 4.01355 10.0267 4.01355 10.0266 4.01355C10.0265 4.01355 10.0263 4.01355 10.0262 4.01355C10.0261 4.01355 10.026 4.01355 10.0259 4.01355C10.0258 4.01355 10.0257 4.01355 10.0256 4.01355C10.0255 4.01355 10.0254 4.01355 10.0253 4.01355C10.0252 4.01355 10.0251 4.01355 10.025 4.01355C10.0249 4.01355 10.0248 4.01355 10.0246 4.01355C10.0245 4.01355 10.0244 4.01355 10.0243 4.01355C10.0242 4.01355 10.0241 4.01355 10.024 4.01355C10.0239 4.01355 10.0238 4.01355 10.0237 4.01355C10.0236 4.01355 10.0235 4.01355 10.0234 4.01355C10.0233 4.01355 10.0232 4.01355 10.0231 4.01355C10.0229 4.01355 10.0228 4.01355 10.0227 4.01355C10.0226 4.01355 10.0225 4.01355 10.0224 4.01355C10.0223 4.01355 10.0222 4.01355 10.0221 4.01355C10.022 4.01355 10.0219 4.01355 10.0218 4.01355C10.0217 4.01355 10.0216 4.01355 10.0215 4.01355C10.0214 4.01355 10.0212 4.01355 10.0211 4.01355C10.021 4.01355 10.0209 4.01355 10.0208 4.01355C10.0207 4.01355 10.0206 4.01355 10.0205 4.01355C10.0204 4.01355 10.0203 4.01355 10.0202 4.01355C10.0201 4.01355 10.02 4.01355 10.0199 4.01355C10.0198 4.01355 10.0197 4.01355 10.0195 4.01355C10.0194 4.01355 10.0193 4.01355 10.0192 4.01355C10.0191 4.01355 10.019 4.01355 10.0189 4.01355C10.0188 4.01355 10.0187 4.01355 10.0186 4.01355C10.0185 4.01355 10.0184 4.01355 10.0183 4.01355C10.0182 4.01355 10.0181 4.01355 10.018 4.01355C10.0178 4.01355 10.0177 4.01355 10.0176 4.01355C10.0175 4.01355 10.0174 4.01355 10.0173 4.01355C10.0172 4.01355 10.0171 4.01355 10.017 4.01355C10.0169 4.01355 10.0168 4.01355 10.0167 4.01355C10.0166 4.01355 10.0165 4.01355 10.0164 4.01355C10.0163 4.01355 10.0161 4.01355 10.016 4.01355C10.0159 4.01355 10.0158 4.01355 10.0157 4.01355C10.0156 4.01355 10.0155 4.01355 10.0154 4.01355C10.0153 4.01355 10.0152 4.01355 10.0151 4.01355C10.015 4.01355 10.0149 4.01355 10.0148 4.01355C10.0147 4.01355 10.0146 4.01355 10.0144 4.01355C10.0143 4.01355 10.0142 4.01355 10.0141 4.01355C10.014 4.01355 10.0139 4.01355 10.0138 4.01355C10.0137 4.01355 10.0136 4.01355 10.0135 4.01355C10.0134 4.01355 10.0133 4.01355 10.0132 4.01355C10.0131 4.01355 10.013 4.01355 10.0129 4.01355C10.0127 4.01355 10.0126 4.01355 10.0125 4.01355C10.0124 4.01355 10.0123 4.01355 10.0122 4.01355C10.0121 4.01355 10.012 4.01355 10.0119 4.01355C10.0118 4.01355 10.0117 4.01355 10.0116 4.01355C10.0115 4.01355 10.0114 4.01355 10.0113 4.01355C10.0112 4.01355 10.011 4.01355 10.0109 4.01355C10.0108 4.01355 10.0107 4.01355 10.0106 4.01355C10.0105 4.01355 10.0104 4.01355 10.0103 4.01355C10.0102 4.01355 10.0101 4.01355 10.01 4.01355C10.0099 4.01355 10.0098 4.01355 10.0097 4.01355C10.0096 4.01355 10.0094 4.01355 10.0093 4.01355C10.0092 4.01355 10.0091 4.01355 10.009 4.01355C10.0089 4.01355 10.0088 4.01355 10.0087 4.01355C10.0086 4.01355 10.0085 4.01355 10.0084 4.01355C10.0083 4.01355 10.0082 4.01355 10.0081 4.01355C10.008 4.01355 10.0079 4.01355 10.0077 4.01355C10.0076 4.01355 10.0075 4.01355 10.0074 4.01355C10.0073 4.01355 10.0072 4.01355 10.0071 4.01355C10.007 4.01355 10.0069 4.01355 10.0068 4.01355C10.0067 4.01355 10.0066 4.01355 10.0065 4.01355C10.0064 4.01355 10.0063 4.01355 10.0062 4.01355C10.006 4.01355 10.0059 4.01355 10.0058 4.01355C10.0057 4.01355 10.0056 4.01355 10.0055 4.01355C10.0054 4.01355 10.0053 4.01355 10.0052 4.01355C10.0051 4.01355 10.005 4.01355 10.0049 4.01355C10.0048 4.01355 10.0047 4.01355 10.0046 4.01355C10.0045 4.01355 10.0043 4.01355 10.0042 4.01355C10.0041 4.01355 10.004 4.01355 10.0039 4.01355C10.0038 4.01355 10.0037 4.01355 10.0036 4.01355C10.0035 4.01355 10.0034 4.01355 10.0033 4.01355C10.0032 4.01355 10.0031 4.01355 10.003 4.01355C10.0029 4.01355 10.0027 4.01355 10.0026 4.01355C10.0025 4.01355 10.0024 4.01355 10.0023 4.01355C10.0022 4.01355 10.0021 4.01355 10.002 4.01355C10.0019 4.01355 10.0018 4.01355 10.0017 4.01355C10.0016 4.01355 10.0015 4.01355 10.0014 4.01355C10.0013 4.01355 10.0012 4.01355 10.001 4.01355C10.0009 4.01355 10.0008 4.01355 10.0007 4.01355C10.0006 4.01355 10.0005 4.01355 10.0004 4.01355C10.0003 4.01355 10.0002 4.01355 10.0001 4.01355C9.99998 4.01355 9.99988 4.01355 9.99977 4.01355C9.99966 4.01355 9.99956 4.01355 9.99945 4.01355C9.99934 4.01355 9.99924 4.01355 9.99913 4.01355C9.99902 4.01355 9.99892 4.01355 9.99881 4.01355C9.9987 4.01355 9.9986 4.01355 9.99849 4.01355C9.99839 4.01355 9.99828 4.01355 9.99817 4.01355C9.99807 4.01355 9.99796 4.01355 9.99785 4.01355C9.99775 4.01355 9.99764 4.01355 9.99753 4.01355C9.99743 4.01355 9.99732 4.01355 9.99722 4.01355C9.99711 4.01355 9.997 4.01355 9.9969 4.01355C9.99679 4.01355 9.99668 4.01355 9.99658 4.01355C9.99647 4.01355 9.99636 4.01355 9.99626 4.01355C9.99615 4.01355 9.99604 4.01355 9.99594 4.01355C9.99583 4.01355 9.99573 4.01355 9.99562 4.01355C9.99551 4.01355 9.99541 4.01355 9.9953 4.01355C9.99519 4.01355 9.99509 4.01355 9.99498 4.01355C9.99487 4.01355 9.99477 4.01355 9.99466 4.01355C9.99455 4.01355 9.99445 4.01355 9.99434 4.01355C9.99423 4.01355 9.99413 4.01355 9.99402 4.01355C9.99392 4.01355 9.99381 4.01355 9.9937 4.01355C9.9936 4.01355 9.99349 4.01355 9.99338 4.01355C9.99328 4.01355 9.99317 4.01355 9.99306 4.01355C9.99296 4.01355 9.99285 4.01355 9.99274 4.01355C9.99264 4.01355 9.99253 4.01355 9.99242 4.01355C9.99232 4.01355 9.99221 4.01355 9.99211 4.01355C9.992 4.01355 9.99189 4.01355 9.99179 4.01355C9.99168 4.01355 9.99157 4.01355 9.99147 4.01355C9.99136 4.01355 9.99125 4.01355 9.99115 4.01355C9.99104 4.01355 9.99093 4.01355 9.99083 4.01355C9.99072 4.01355 9.99061 4.01355 9.99051 4.01355C9.9904 4.01355 9.99029 4.01355 9.99019 4.01355C9.99008 4.01355 9.98998 4.01355 9.98987 4.01355C9.98976 4.01355 9.98966 4.01355 9.98955 4.01355C9.98944 4.01355 9.98934 4.01355 9.98923 4.01355C9.98912 4.01355 9.98902 4.01355 9.98891 4.01355C9.9888 4.01355 9.9887 4.01355 9.98859 4.01355C9.98848 4.01355 9.98838 4.01355 9.98827 4.01355C9.98816 4.01355 9.98806 4.01355 9.98795 4.01355C9.98785 4.01355 9.98774 4.01355 9.98763 4.01355C9.98753 4.01355 9.98742 4.01355 9.98731 4.01355C9.98721 4.01355 9.9871 4.01355 9.98699 4.01355C9.98689 4.01355 9.98678 4.01355 9.98667 4.01355C9.98657 4.01355 9.98646 4.01355 9.98635 4.01355C9.98625 4.01355 9.98614 4.01355 9.98603 4.01355C9.98593 4.01355 9.98582 4.01355 9.98572 4.01355C9.98561 4.01355 9.9855 4.01355 9.9854 4.01355C9.98529 4.01355 9.98518 4.01355 9.98508 4.01355C9.98497 4.01355 9.98486 4.01355 9.98476 4.01355C9.98465 4.01355 9.98454 4.01355 9.98444 4.01355C9.98433 4.01355 9.98422 4.01355 9.98412 4.01355C9.98401 4.01355 9.9839 4.01355 9.9838 4.01355C9.98369 4.01355 9.98358 4.01355 9.98348 4.01355C9.98337 4.01355 9.98326 4.01355 9.98316 4.01355C9.98305 4.01355 9.98295 4.01355 9.98284 4.01355C9.98273 4.01355 9.98263 4.01355 9.98252 4.01355C9.98241 4.01355 9.98231 4.01355 9.9822 4.01355C9.98209 4.01355 9.98199 4.01355 9.98188 4.01355C9.98177 4.01355 9.98167 4.01355 9.98156 4.01355C9.98145 4.01355 9.98135 4.01355 9.98124 4.01355C9.98113 4.01355 9.98103 4.01355 9.98092 4.01355C9.98081 4.01355 9.98071 4.01355 9.9806 4.01355C9.98049 4.01355 9.98039 4.01355 9.98028 4.01355C9.98017 4.01355 9.98007 4.01355 9.97996 4.01355C9.97986 4.01355 9.97975 4.01355 9.97964 4.01355C9.97954 4.01355 9.97943 4.01355 9.97932 4.01355C9.97922 4.01355 9.97911 4.01355 9.979 4.01355C9.9789 4.01355 9.97879 4.01355 9.97868 4.01355C9.97858 4.01355 9.97847 4.01355 9.97836 4.01355C9.97826 4.01355 9.97815 4.01355 9.97804 4.01355C9.97794 4.01355 9.97783 4.01355 9.97772 4.01355C9.97762 4.01355 9.97751 4.01355 9.9774 4.01355C9.9773 4.01355 9.97719 4.01355 9.97708 4.01355C9.97698 4.01355 9.97687 4.01355 9.97676 4.01355C9.97666 4.01355 9.97655 4.01355 9.97644 4.01355C9.97634 4.01355 9.97623 4.01355 9.97612 4.01355C9.97602 4.01355 9.97591 4.01355 9.9758 4.01355C9.9757 4.01355 9.97559 4.01355 9.97548 4.01355C9.97538 4.01355 9.97527 4.01355 9.97516 4.01355C9.97506 4.01355 9.97495 4.01355 9.97484 4.01355C9.97474 4.01355 9.97463 4.01355 9.97453 4.01355C9.97442 4.01355 9.97431 4.01355 9.97421 4.01355C9.9741 4.01355 9.97399 4.01355 9.97389 4.01355C9.97378 4.01355 9.97367 4.01355 9.97357 4.01355C9.97346 4.01355 9.97335 4.01355 9.97325 4.01355C9.97314 4.01355 9.97303 4.01355 9.97293 4.01355C9.97282 4.01355 9.97271 4.01355 9.97261 4.01355C9.9725 4.01355 9.97239 4.01355 9.97229 4.01355C9.97218 4.01355 9.97207 4.01355 9.97197 4.01355C9.97186 4.01355 9.97175 4.01355 9.97165 4.01355C9.97154 4.01355 9.97143 4.01355 9.97133 4.01355C9.97122 4.01355 9.97111 4.01355 9.97101 4.01355C9.9709 4.01355 9.97079 4.01355 9.97069 4.01355C9.97058 4.01355 9.97047 4.01355 9.97037 4.01355C9.97026 4.01355 9.97015 4.01355 9.97005 4.01355C9.96994 4.01355 9.96983 4.01355 9.96973 4.01355C9.96962 4.01355 9.96951 4.01355 9.96941 4.01355C9.9693 4.01355 9.96919 4.01355 9.96909 4.01355C9.96898 4.01355 9.96887 4.01355 9.96877 4.01355C9.96866 4.01355 9.96855 4.01355 9.96845 4.01355C9.96834 4.01355 9.96823 4.01355 9.96813 4.01355C9.96802 4.01355 9.96791 4.01355 9.96781 4.01355C9.9677 4.01355 9.96759 4.01355 9.96749 4.01355C9.96738 4.01355 9.96727 4.01355 9.96717 4.01355C9.96706 4.01355 9.96695 4.01355 9.96685 4.01355C9.96674 4.01355 9.96663 4.01355 9.96653 4.01355C9.96642 4.01355 9.96631 4.01355 9.96621 4.01355C9.9661 4.01355 9.96599 4.01355 9.96589 4.01355C9.96578 4.01355 9.96567 4.01355 9.96557 4.01355C9.96546 4.01355 9.96535 4.01355 9.96525 4.01355C9.96514 4.01355 9.96503 4.01355 9.96493 4.01355C9.96482 4.01355 9.96471 4.01355 9.96461 4.01355C9.9645 4.01355 9.96439 4.01355 9.96429 4.01355C9.96418 4.01355 9.96407 4.01355 9.96397 4.01355C9.96386 4.01355 9.96375 4.01355 9.96365 4.01355C9.96354 4.01355 9.96343 4.01355 9.96333 4.01355C9.96322 4.01355 9.96311 4.01355 9.96301 4.01355C9.9629 4.01355 9.96279 4.01355 9.96269 4.01355C9.96258 4.01355 9.96247 4.01355 9.96237 4.01355C9.96226 4.01355 9.96215 4.01355 9.96205 4.01355C9.96194 4.01355 9.96183 4.01355 9.96173 4.01355C9.96162 4.01355 9.96151 4.01355 9.96141 4.01355C9.9613 4.01355 9.96119 4.01355 9.96108 4.01355C9.96098 4.01355 9.96087 4.01355 9.96076 4.01355C9.96066 4.01355 9.96055 4.01355 9.96044 4.01355C9.96034 4.01355 9.96023 4.01355 9.96012 4.01355C9.96002 4.01355 9.95991 4.01355 9.9598 4.01355C9.9597 4.01355 9.95959 4.01355 9.95948 4.01355C9.95938 4.01355 9.95927 4.01355 9.95916 4.01355C9.95906 4.01355 9.95895 4.01355 9.95884 4.01355C9.95874 4.01355 9.95863 4.01355 9.95852 4.01355C9.95842 4.01355 9.95831 4.01355 9.9582 4.01355C9.9581 4.01355 9.95799 4.01355 9.95788 4.01355C9.95778 4.01355 9.95767 4.01355 9.95756 4.01355C9.95746 4.01355 9.95735 4.01355 9.95724 4.01355C9.95714 4.01355 9.95703 4.01355 9.95692 4.01355C9.95682 4.01355 9.95671 4.01355 9.9566 4.01355C9.9565 4.01355 9.95639 4.01355 9.95628 4.01355C9.95617 4.01355 9.95607 4.01355 9.95596 4.01355C9.95585 4.01355 9.95575 4.01355 9.95564 4.01355C9.95553 4.01355 9.95543 4.01355 9.95532 4.01355C9.95521 4.01355 9.95511 4.01355 9.955 4.01355V5.51355ZM10.0746 5.51229C10.7641 5.5523 11.4332 5.26964 11.8851 4.74732L10.7509 3.76578C10.6037 3.93582 10.3859 4.02784 10.1614 4.01481L10.0746 5.51229ZM11.8869 4.74525C12.436 4.10609 13.2397 3.74263 14.0822 3.7525L14.0998 2.2526C12.8138 2.23754 11.5871 2.79229 10.7491 3.76785L11.8869 4.74525ZM14.1199 3.752C15.564 3.69631 16.781 4.81915 16.8417 6.26301L18.3403 6.20009C18.245 3.93052 16.332 2.16558 14.0621 2.25311L14.1199 3.752ZM16.8413 6.25145C16.8617 7.01982 17.2729 7.72462 17.9318 8.12045L18.7042 6.83465C18.4846 6.70271 18.3475 6.46778 18.3407 6.21165L16.8413 6.25145ZM17.9517 8.132C18.4379 8.40418 18.7422 8.91493 18.7501 9.47213L20.2499 9.45098C20.2345 8.35836 19.6378 7.35682 18.6843 6.8231L17.9517 8.132ZM18.7507 9.43031C18.7116 10.3678 17.9214 11.0971 16.9838 11.0611L16.9262 12.56C18.6898 12.6277 20.1758 11.2561 20.2493 9.4928L18.7507 9.43031ZM8.046 12.5606H16.955V11.0606H8.046V12.5606ZM7.36539 12.1256L11.3854 20.8096L12.7466 20.1795L8.72661 11.4955L7.36539 12.1256ZM11.3847 20.808C11.6582 21.4027 12.2623 21.7748 12.9165 21.7517L12.8634 20.2526C12.8139 20.2544 12.7681 20.2262 12.7473 20.1811L11.3847 20.808ZM12.9165 21.7517C13.5707 21.7285 14.147 21.3146 14.3778 20.7021L12.9742 20.1731C12.9567 20.2195 12.913 20.2508 12.8634 20.2526L12.9165 21.7517ZM14.3771 20.704L17.6561 12.077L16.2539 11.5441L12.9749 20.1711L14.3771 20.704Z" fill="#000000"/>
</svg>