<?xml version="1.0" encoding="utf-8"?>

<!DOCTYPE svg PUBLIC "-//W3C//DTD SVG 1.1//EN" "http://www.w3.org/Graphics/SVG/1.1/DTD/svg11.dtd">
<!-- Uploaded to: SVG Repo, www.svgrepo.com, Generator: SVG Repo Mixer Tools -->
<svg height="800px" width="800px" version="1.1" id="_x32_" xmlns="http://www.w3.org/2000/svg" xmlns:xlink="http://www.w3.org/1999/xlink" 
	 viewBox="0 0 512 512"  xml:space="preserve">
<style type="text/css">
	.st0{fill:#000000;}
</style>
<g>
	<path class="st0" d="M421.555,90.297c-0.841-3.541-2.333-6.952-4.146-10.105l-0.02-0.026c-0.959-1.662-1.932-3.095-3.16-4.882
		c-4.218-6.064-11.195-15.296-17.28-23.253c-3.049-3.988-5.848-7.602-7.878-10.224V0H122.929v41.808
		c-2.608,3.364-6.458,8.351-10.525,13.693c-3.582,4.704-7.294,9.639-10.428,13.916c-1.564,2.142-2.983,4.12-4.205,5.874
		c-1.229,1.787-2.202,3.22-3.161,4.882c-1.82,3.167-3.324,6.577-4.166,10.124c-0.854,3.548-0.979,6.787-0.979,9.442
		c0.007,2.706,0.112,5.072,0.112,8.055c0,9.968,0,317.962,0,330.919c0.026,7.95,1.038,16.59,3.784,25
		c1.4,4.205,3.239,8.384,6.006,12.385c2.752,3.962,6.603,7.898,11.984,10.474c2.858,1.406,3.942,2.438,5.065,3.686
		c0.828,0.953,1.636,2.155,2.78,3.995c0.861,1.366,1.892,3.094,3.404,5.132c2.208,3.016,5.907,6.833,10.933,9.244
		c5.006,2.451,10.572,3.378,16.367,3.371h212.198c3.462,0,6.767-0.316,9.986-1.091c2.806-0.677,5.546-1.728,7.996-3.134
		c4.337-2.444,7.458-5.841,9.442-8.561c2.99-4.179,4.252-6.774,5.566-8.358c1.314-1.584,2.286-2.654,5.565-4.284
		c5.375-2.576,9.225-6.512,11.978-10.474c4.12-6.012,6.281-12.378,7.754-18.726c1.426-6.347,2.03-12.701,2.036-18.66
		c0-12.957,0-320.952,0-330.919c0-2.989,0.105-5.361,0.112-8.062C422.534,97.078,422.409,93.846,421.555,90.297z M153.876,30.947
		h204.248v19.409H153.876V30.947z M387.218,458.432l-0.368,0.466c-6.308,3.055-11.262,7.122-14.665,11.098
		c-2.628,3.042-4.396,5.887-5.638,7.878c-0.933,1.498-1.583,2.51-1.938,2.976v0.007c-0.381,0.078-1.104,0.197-2.51,0.197H149.901
		c-1.36,0-2.109-0.112-2.497-0.197c-0.216-0.283-0.539-0.723-1.045-1.538c-1.268-1.958-3.291-5.605-6.78-9.593
		c-3.39-3.896-8.272-7.845-14.435-10.835c-0.092-0.098-0.519-0.572-1.058-1.63c-0.256-0.48-0.513-1.07-0.775-1.721h265.333
		C388.124,456.822,387.599,457.899,387.218,458.432z M391.476,107.794c0,9.968,0,317.962,0,330.919
		c0.006,1.078-0.046,2.221-0.118,3.37H120.682c-0.065-1.143-0.157-2.3-0.157-3.37c0-12.957,0-320.952,0-330.919
		c0-3.666-0.118-6.406-0.112-8.055c0-1.696,0.098-2.076,0.125-2.214c0.046-0.145,0.098-0.493,0.932-1.985
		c0.033-0.072,0.762-1.222,1.735-2.614c3.509-5.066,10.48-14.324,16.426-22.084c1.991-2.602,3.778-4.921,5.408-7.03h221.922
		c3.72,4.816,8.7,11.301,13.266,17.379c2.563,3.423,4.98,6.689,6.873,9.336c0.946,1.314,1.767,2.484,2.378,3.39
		c0.611,0.894,1.045,1.59,1.058,1.636l-0.013-0.026c0.841,1.492,0.894,1.846,0.933,1.984c0.032,0.145,0.124,0.526,0.131,2.221
		C391.587,101.388,391.476,104.128,391.476,107.794z"/>
</g>
</svg>